<svg width="592" height="589" viewBox="0 0 592 589" fill="none" xmlns="http://www.w3.org/2000/svg">
<path opacity="0.7" d="M570.63 356.246C552.406 397.022 524.433 425.913 496.095 451.065C433.456 506.606 365.351 548.894 294.33 574.267C267.827 583.728 234.334 589.97 204.434 588.876C196.194 588.628 187.989 587.678 179.91 586.035C145.193 578.802 110.919 554.289 90.9383 511.754C89.0117 507.636 87.2284 503.4 85.5492 499.061C74.5888 470.521 68.8092 437.812 59.3589 407.838C46.9666 368.652 38.6357 336.046 23.601 298.932C8.56623 261.818 -3.08404 219.112 0.729962 176.251C4.47888 134.654 22.6898 97.9952 45.6128 73.1567C68.5359 48.3181 95.3511 30.5819 123.338 23.2581C411.132 -52.1959 521.907 79.1904 532.972 89.5506C558.928 113.842 578.662 154.045 587.11 197.532C597.406 250.61 591.223 310.165 570.63 356.246Z" fill="#8BBBFF"/>
</svg>
