<svg width="56" height="56" viewBox="0 0 56 56" fill="none" xmlns="http://www.w3.org/2000/svg">
<g clip-path="url(#clip0)">
<path d="M15.2515 44.6012L22.75 40.2717L19.4688 34.5786L16.1875 28.8856L8.64883 33.2356C8.42866 32.0478 8.3125 30.8486 8.3125 29.6405C8.3125 26.725 8.97619 23.8878 10.224 21.2656L4.53228 17.9609C2.71906 21.6003 1.75 25.558 1.75 29.6405C1.75 34.4166 3.04959 38.8865 5.27997 42.754C9.55795 50.1718 17.3243 55.4406 26.3594 55.9999V49.2451C22.2193 48.9017 18.3652 47.253 15.2515 44.6012Z" fill="#2F80ED"/>
<path d="M26.3607 55.9993V49.2445C22.2206 48.9011 18.3664 47.2524 15.2527 44.6007L22.7513 40.2712L19.47 34.5781L5.28125 42.7534C9.55923 50.1712 17.3256 55.44 26.3607 55.9993Z" fill="#3F89EE"/>
<path d="M51.4847 17.9854L45.7823 21.2934C47.0764 24.0055 47.6875 26.848 47.6875 29.6404C47.6875 30.8476 47.5716 32.048 47.3504 33.2399L39.8124 28.8856L36.5311 34.5785L33.2499 40.2716L40.7553 44.5954C37.6415 47.2496 33.7846 48.9011 29.6406 49.2449V55.9997C38.6754 55.4404 46.4418 50.172 50.72 42.754C52.9504 38.8867 54.25 34.4166 54.25 29.6404C54.25 25.6576 53.3437 21.6891 51.4847 17.9854Z" fill="#3DCCB4"/>
<path d="M51.4848 17.9854L45.7824 21.2934C47.0765 24.0055 47.6876 26.848 47.6876 29.6404C47.6876 30.8476 47.5717 32.048 47.3505 33.2399L39.8125 28.8856L36.5312 34.5785L50.7201 42.754C52.9505 38.8867 54.2501 34.4167 54.2501 29.6404C54.2501 25.6576 53.3438 21.6891 51.4848 17.9854Z" fill="#5CE6B8"/>
<path d="M28.0015 3.39062C19.5737 3.39062 11.4087 7.35175 6.14844 15.1047L11.8578 18.4185C14.0606 15.1725 17.4892 12.5087 21.439 11.1015V19.7969H28.0015H34.564V11.1015C38.3093 12.4358 41.7641 14.9428 44.1451 18.4515L49.8545 15.1374C45.7616 8.54339 37.4717 3.39062 28.0015 3.39062Z" fill="#366496"/>
<path d="M34.5625 11.1015C38.3078 12.4358 41.7627 14.9428 44.1436 18.4515L49.853 15.1374C45.7601 8.54339 37.4702 3.39062 28 3.39062V19.7969H34.5625V11.1015Z" fill="#294872"/>
<path d="M28 0C25.2817 0 23.0781 2.31295 23.0781 5.03125C23.0781 7.74955 25.2817 9.95312 28 9.95312C30.7183 9.95312 32.9219 7.74955 32.9219 5.03125C32.9219 2.31295 30.7183 0 28 0Z" fill="#C9C9C9"/>
<path d="M32.9219 5.03125C32.9219 2.31295 30.7183 0 28 0V9.95312C30.7183 9.95312 32.9219 7.74955 32.9219 5.03125Z" fill="#666666"/>
<path d="M11.1953 39.3456C9.77642 36.8876 6.6309 36.2834 4.50006 37.5201C2.1427 38.8761 1.33562 41.8902 2.69603 44.2428C4.03828 46.5666 7.04095 47.4163 9.42029 46.0437C11.6281 44.7718 12.6571 41.8792 11.1953 39.3456Z" fill="#C9C9C9"/>
<path d="M9.42348 46.0438C11.6313 44.772 12.6603 41.8794 11.1985 39.3457L2.69922 44.243C4.04136 46.5668 7.04403 47.4165 9.42348 46.0438Z" fill="#666666"/>
<path d="M51.498 37.5173C49.0422 36.0994 46.1812 37.0685 44.7761 39.3291C43.4704 41.4306 44.0884 44.6067 46.5777 46.0425C48.9627 47.4191 51.9682 46.5507 53.3019 44.2416C54.6463 41.9139 53.884 38.8946 51.498 37.5173Z" fill="#666666"/>
<path d="M51.4992 37.5173C49.0434 36.0994 46.1824 37.0685 44.7773 39.3291L53.3032 44.2416C54.6475 41.9139 53.8852 38.8946 51.4992 37.5173Z" fill="#C9C9C9"/>
</g>
<defs>
<clipPath id="clip0">
<rect width="56" height="56" fill="white"/>
</clipPath>
</defs>
</svg>
