<svg width="56" height="56" viewBox="0 0 56 56" fill="none" xmlns="http://www.w3.org/2000/svg">
<path d="M35.0006 54.0859H21.0006C19.9849 54.0859 19.2165 53.1744 19.3818 52.1752L21.1318 41.6752C21.2642 40.8844 21.9489 40.3047 22.7506 40.3047H33.2506C34.0523 40.3047 34.737 40.8844 34.8693 41.6752L36.6193 52.1752C36.7845 53.1729 36.0177 54.0859 35.0006 54.0859Z" fill="#366496"/>
<path d="M35 54.0859H28V40.3047H33.25C34.0517 40.3047 34.7364 40.8844 34.8687 41.6752L36.6187 52.1752C36.7839 53.1729 36.0171 54.0859 35 54.0859Z" fill="#294872"/>
<path d="M40.1406 52.4453C40.1406 53.3509 39.4056 54.0859 38.5 54.0859H17.5C16.5944 54.0859 15.8594 53.3509 15.8594 52.4453C15.8594 51.5397 16.5944 50.8047 17.5 50.8047H38.5C39.4056 50.8047 40.1406 51.5397 40.1406 52.4453Z" fill="#366496"/>
<path d="M40.1406 52.4453C40.1406 53.3509 39.4056 54.0859 38.5 54.0859H28V50.8047H38.5C39.4056 50.8047 40.1406 51.5397 40.1406 52.4453Z" fill="#294872"/>
<path d="M54.3594 6.83594V38.6641C54.3594 40.4764 52.8905 41.9453 51.0781 41.9453H4.92188C3.10953 41.9453 1.64062 40.4764 1.64062 38.6641V6.83594C1.64062 5.02359 3.10953 3.55469 4.92188 3.55469H51.0781C52.8905 3.55469 54.3594 5.02359 54.3594 6.83594Z" fill="#F6F9F9"/>
<path d="M54.3594 6.83594V38.6641C54.3594 40.4764 52.8905 41.9453 51.0781 41.9453H28V3.55469H51.0781C52.8905 3.55469 54.3594 5.02359 54.3594 6.83594Z" fill="white"/>
<path d="M51.0781 1.91406H4.92188C2.20828 1.91406 0 4.12234 0 6.83594V38.6641C0 41.3777 2.20828 43.5859 4.92188 43.5859H51.0781C53.7917 43.5859 56 41.3777 56 38.6641V6.83594C56 4.12234 53.7917 1.91406 51.0781 1.91406ZM52.7188 38.6641C52.7188 39.5686 51.9827 40.3047 51.0781 40.3047H4.92188C4.01734 40.3047 3.28125 39.5686 3.28125 38.6641V6.83594C3.28125 5.93141 4.01734 5.19531 4.92188 5.19531H51.0781C51.9827 5.19531 52.7188 5.93141 52.7188 6.83594V38.6641Z" fill="#366496"/>
<path d="M56 6.83594V38.6641C56 41.3777 53.7917 43.5859 51.0781 43.5859H28V40.3047H51.0781C51.9827 40.3047 52.7188 39.5686 52.7188 38.6641V6.83594C52.7188 5.93141 51.9827 5.19531 51.0781 5.19531H28V1.91406H51.0781C53.7917 1.91406 56 4.12234 56 6.83594Z" fill="#294872"/>
<path d="M29.6406 3.55469V7.05469C29.6406 7.96031 28.9056 8.69531 28 8.69531C27.0944 8.69531 26.3594 7.96031 26.3594 7.05469V3.55469C26.3594 2.64906 27.0944 1.91406 28 1.91406C28.9056 1.91406 29.6406 2.64906 29.6406 3.55469Z" fill="#366496"/>
<path d="M29.6406 3.55469V7.05469C29.6406 7.96031 28.9056 8.69531 28 8.69531V1.91406C28.9056 1.91406 29.6406 2.64906 29.6406 3.55469Z" fill="#294872"/>
<path d="M15.75 31.5547C14.8439 31.5547 14.1094 30.8201 14.1094 29.9141V19.3047C14.1094 18.3986 14.8439 17.6641 15.75 17.6641C16.6561 17.6641 17.3906 18.3986 17.3906 19.3047V29.9141C17.3906 30.8201 16.6561 31.5547 15.75 31.5547Z" fill="#FFB454"/>
<path d="M22.75 31.5547C21.8439 31.5547 21.1094 30.8201 21.1094 29.9141V24.5547C21.1094 23.6486 21.8439 22.9141 22.75 22.9141C23.6561 22.9141 24.3906 23.6486 24.3906 24.5547V29.9141C24.3906 30.8201 23.6561 31.5547 22.75 31.5547Z" fill="#E27A4E"/>
<path d="M39.375 32.3203C44.6303 32.3203 48.8906 28.06 48.8906 22.8047C48.8906 17.5494 44.6303 13.2891 39.375 13.2891C34.1197 13.2891 29.8594 17.5494 29.8594 22.8047C29.8594 28.06 34.1197 32.3203 39.375 32.3203Z" fill="#3F89EE"/>
<path d="M48.8889 22.8047C48.8889 28.0514 44.62 32.3203 39.3733 32.3203C36.8314 32.3203 34.4427 31.3305 32.6445 29.5334L39.3733 22.8047V21.1641H47.2483C48.1539 21.1641 48.8889 21.8991 48.8889 22.8047Z" fill="#3DCCB4"/>
<path d="M48.8906 22.8047H39.375V13.2891C44.6217 13.2891 48.8906 17.558 48.8906 22.8047Z" fill="#294872"/>
<path d="M8.75 31.5547C7.84394 31.5547 7.10938 30.8201 7.10938 29.9141V14.0547C7.10938 13.1486 7.84394 12.4141 8.75 12.4141C9.65606 12.4141 10.3906 13.1486 10.3906 14.0547V29.9141C10.3906 30.8201 9.65606 31.5547 8.75 31.5547Z" fill="#ACE233"/>
<path d="M7.10938 29.9141V31.5547C7.10938 32.4608 7.84394 33.1953 8.75 33.1953H22.75C23.6561 33.1953 24.3906 32.4608 24.3906 31.5547V29.9141C22.2084 29.9141 9.28288 29.9141 7.10938 29.9141Z" fill="#E2DFF4"/>
</svg>
