<svg width="56" height="56" viewBox="0 0 56 56" fill="none" xmlns="http://www.w3.org/2000/svg">
<g clip-path="url(#clip0)">
<path d="M9.84754 29.6426C8.94078 29.6426 8.20703 28.9089 8.20703 28.0021V18.1591C8.20703 17.2523 8.94078 16.5186 9.84754 16.5186C10.7543 16.5186 11.488 17.2523 11.488 18.1591V28.0021C11.488 28.9089 10.7543 29.6426 9.84754 29.6426Z" fill="#294872"/>
<path d="M13.128 9.95582V16.5178L11.4875 19.7989H6.56593C2.95693 19.7989 0.00390625 16.8458 0.00390625 13.2368C0.00390625 9.62761 2.95693 6.6748 6.56593 6.6748H11.4875L13.128 9.95582Z" fill="#366496"/>
<path d="M13.128 13.2373V16.5183L11.4875 19.7993H6.56593C2.95693 19.7993 0.00390625 16.8463 0.00390625 13.2373H13.128Z" fill="#294872"/>
<path d="M55.16 44.8334L53.3763 43.7835C53.5732 42.9304 53.7043 42.0445 53.7043 41.1259C53.7043 40.2071 53.5732 39.3213 53.3763 38.4683L55.16 37.4183C55.9474 36.959 56.2426 35.9419 55.7833 35.1544L54.1428 32.3328C53.6835 31.5451 52.6664 31.2828 51.8789 31.7094L50.0953 32.792C48.8157 31.578 47.2408 30.6923 45.5018 30.1672V28.0018C45.5018 27.083 44.78 26.3613 43.8612 26.3613H40.5802C39.6614 26.3613 38.9397 27.083 38.9397 28.0018V30.1672C37.2007 30.6923 35.6259 31.578 34.3462 32.792L32.5088 31.7094C31.7214 31.2828 30.7043 31.5452 30.2449 32.3328L28.6044 35.1544C28.1452 35.9419 28.4404 36.959 29.2278 37.4183L31.0652 38.4683C30.8683 39.3213 30.7372 40.2071 30.7372 41.1259C30.7372 42.0445 30.8683 42.9304 31.0652 43.7835L29.2278 44.8334C28.4404 45.2927 28.1452 46.3098 28.6044 47.0973L30.2449 49.919C30.7043 50.7064 31.7214 50.9689 32.5088 50.5424L34.3462 49.4595C35.6258 50.6735 37.2007 51.5594 38.9397 52.0844V54.3593C38.9397 55.2779 39.6614 55.9998 40.5802 55.9998H43.8612C44.78 55.9998 45.5018 55.2779 45.5018 54.3593V52.0844C47.2408 51.5595 48.8156 50.6735 50.0953 49.4595L51.8789 50.5424C52.6664 50.9689 53.6835 50.7064 54.1428 49.919L55.7833 47.0973C56.2426 46.3098 55.9474 45.2927 55.16 44.8334ZM42.2208 44.4069C40.4163 44.4069 38.9398 42.9304 38.9398 41.1259C38.9398 39.3213 40.4163 37.8449 42.2208 37.8449C44.0254 37.8449 45.5019 39.3213 45.5019 41.1259C45.5019 42.9304 44.0253 44.4069 42.2208 44.4069Z" fill="#F3F5F9"/>
<path d="M55.7814 47.0973L54.1409 49.919C53.6815 50.7064 52.6644 50.9689 51.877 50.5424L50.0933 49.4595C48.8137 50.6735 47.2388 51.5594 45.4998 52.0844V54.3593C45.4998 55.2779 44.7781 55.9998 43.8593 55.9998H42.2188V44.4069C44.0233 44.4069 45.4998 42.9304 45.4998 41.1259C45.4998 39.3213 44.0233 37.8449 42.2188 37.8449V26.3613H43.8593C44.7781 26.3613 45.4998 27.083 45.4998 28.0018V30.1672C47.2388 30.6923 48.8136 31.578 50.0933 32.792L51.877 31.7094C52.6644 31.2828 53.6815 31.5452 54.1409 32.3328L55.7814 35.1544C56.2406 35.9419 55.9454 36.959 55.158 37.4183L53.3743 38.4683C53.5712 39.3213 53.7023 40.2071 53.7023 41.1259C53.7023 42.0445 53.5712 42.9304 53.3743 43.7835L55.158 44.8334C55.9454 45.2927 56.2406 46.3098 55.7814 47.0973Z" fill="#D8DBF0"/>
<path d="M36.2519 8.71374C36.0341 7.83585 36.5659 6.94505 37.4471 6.72555L50.5711 3.44454C51.4299 3.21706 52.3398 3.75853 52.5609 4.63806C52.7787 5.51595 52.2469 6.40675 51.3657 6.62625L38.2416 9.90726C37.3819 10.1274 36.4738 9.60497 36.2519 8.71374Z" fill="#2F80ED"/>
<path d="M50.5711 23.0309L37.4471 19.7498C36.5659 19.5303 36.0341 18.6397 36.2519 17.7617C36.4698 16.8821 37.3478 16.339 38.2416 16.5681L51.3657 19.8491C52.2469 20.0686 52.7787 20.9593 52.5609 21.8373C52.3416 22.7184 51.4485 23.2502 50.5711 23.0309Z" fill="#2F80ED"/>
<path d="M42.2184 36.2041C39.495 36.2041 37.2969 38.4023 37.2969 41.1256C37.2969 43.8488 39.495 46.0471 42.2184 46.0471C44.9417 46.0471 47.1399 43.8488 47.1399 41.1256C47.1399 38.4024 44.9416 36.2041 42.2184 36.2041ZM42.2184 42.7661C41.2996 42.7661 40.5779 42.0442 40.5779 41.1256C40.5779 40.2068 41.2996 39.4851 42.2184 39.4851C43.1372 39.4851 43.8589 40.2068 43.8589 41.1256C43.8589 42.0442 43.1371 42.7661 42.2184 42.7661Z" fill="#D8DBF0"/>
<path d="M47.1403 41.1256C47.1403 43.8488 44.9421 46.0471 42.2188 46.0471V42.7661C43.1375 42.7661 43.8593 42.0442 43.8593 41.1256C43.8593 40.2068 43.1375 39.4851 42.2188 39.4851V36.2041C44.942 36.2041 47.1403 38.4024 47.1403 41.1256Z" fill="#B8B8D9"/>
<path d="M32.9243 1.64458V24.721C32.9243 25.2459 32.6618 25.7381 32.2352 26.0661C31.8087 26.3615 31.2509 26.4271 30.7589 26.263L11.4883 19.7995V6.67546L30.7589 0.102392C31.2509 -0.0944687 31.8086 0.00407103 32.2352 0.299253C32.6618 0.627463 32.9243 1.11951 32.9243 1.64458Z" fill="#F3F5F9"/>
<path d="M32.9243 13.2373V24.7208C32.9243 25.2457 32.6618 25.738 32.2352 26.0659C31.8087 26.3614 31.2509 26.4269 30.7589 26.2628L11.4883 19.7993V13.2373H32.9243Z" fill="#D8DBF0"/>
</g>
<defs>
<clipPath id="clip0">
<rect width="56" height="56" fill="white"/>
</clipPath>
</defs>
</svg>
