<svg width="56" height="56" viewBox="0 0 56 56" fill="none" xmlns="http://www.w3.org/2000/svg">
<g clip-path="url(#clip0)">
<path d="M47.3605 56H8.6385C8.01616 56 7.51172 55.4956 7.51172 54.8732V1.12678C7.51172 0.504438 8.01616 0 8.6385 0H47.3606C47.983 0 48.4874 0.504438 48.4874 1.12678V54.8732C48.4873 55.4956 47.9829 56 47.3605 56Z" fill="#ECF4FF"/>
<path d="M8.63662 56.0007H47.3588C47.981 56.0007 48.4855 55.4963 48.4855 54.874V32.542C44.4779 37.1211 39.5223 41.4767 33.7768 45.2802C25.29 50.8985 16.3678 54.458 8.18359 55.9053C8.32228 55.9663 8.4753 56.0007 8.63662 56.0007Z" fill="#CBE2FF"/>
<path d="M16.8434 15.6044V11.04C13.6267 11.04 11.0334 13.7087 11.1566 16.9528C11.2686 19.9025 13.6721 22.306 16.6217 22.418C19.8658 22.5411 22.5345 19.9479 22.5345 16.7311H17.9702C17.3478 16.7311 16.8434 16.2266 16.8434 15.6044Z" fill="#6ACDA5"/>
<path d="M16.8438 11.04V15.6044C16.8438 16.2267 17.3482 16.7312 17.9705 16.7312H22.5349C22.5349 13.588 19.9869 11.04 16.8438 11.04Z" fill="#FFB454"/>
<path d="M18.8906 4.76936V6.1581C18.8906 6.78044 19.3951 7.28488 20.0174 7.28488H35.9752C36.5975 7.28488 37.102 6.78044 37.102 6.1581V4.76936C37.102 4.14702 36.5975 3.64258 35.9752 3.64258H20.0174C19.3951 3.64258 18.8906 4.14702 18.8906 4.76936Z" fill="#2F80ED"/>
<path d="M11.6094 49.3919V51.6821C11.6094 52.0555 11.912 52.3581 12.2854 52.3581H16.3967C16.7701 52.3581 17.0728 52.0555 17.0728 51.6821V49.3919C17.0728 49.0185 16.7701 48.7158 16.3967 48.7158H12.2854C11.9121 48.7158 11.6094 49.0186 11.6094 49.3919Z" fill="#2F80ED"/>
<path d="M20.7148 43.928V51.6816C20.7148 52.055 21.0175 52.3576 21.3909 52.3576H25.5022C25.8756 52.3576 26.1782 52.055 26.1782 51.6816V43.928C26.1782 43.5546 25.8756 43.252 25.5022 43.252H21.3909C21.0176 43.252 20.7148 43.5547 20.7148 43.928Z" fill="#6ACDA5"/>
<path d="M21.3918 52.3579H25.5031C25.8765 52.3579 26.1792 52.0553 26.1792 51.6818V49.7148C24.4192 50.6106 22.6559 51.4198 20.8984 52.1431C21.0219 52.275 21.197 52.3579 21.3918 52.3579Z" fill="#52DCAE"/>
<path d="M29.8203 37.0989V51.6818C29.8203 52.0552 30.123 52.3578 30.4964 52.3578H34.6077C34.9811 52.3578 35.2837 52.0552 35.2837 51.6818V37.0989C35.2837 36.7255 34.9811 36.4229 34.6077 36.4229H30.4964C30.1231 36.4229 29.8203 36.7255 29.8203 37.0989Z" fill="#FFB454"/>
<path d="M35.2837 44.2549C34.7874 44.6002 34.287 44.9428 33.7782 45.2796C32.4678 46.1471 31.147 46.9645 29.8203 47.7337V51.6819C29.8203 52.0553 30.123 52.3579 30.4964 52.3579H34.6077C34.9811 52.3579 35.2837 52.0553 35.2837 51.6819V44.2549Z" fill="#F5AA4A"/>
<path d="M38.9258 32.5462V51.6819C38.9258 52.0553 39.2284 52.3579 39.6018 52.3579H43.7131C44.0865 52.3579 44.3892 52.0553 44.3892 51.6819V32.5462C44.3892 32.1728 44.0865 31.8701 43.7131 31.8701H39.6018C39.2285 31.8701 38.9258 32.1728 38.9258 32.5462Z" fill="#294872"/>
<path d="M44.3892 36.8223C42.6882 38.4532 40.8649 40.0393 38.9258 41.5636V51.6814C38.9258 52.0548 39.2284 52.3575 39.6018 52.3575H43.7131C44.0865 52.3575 44.3892 52.0548 44.3892 51.6814V36.8223Z" fill="#1F3E68"/>
<path d="M44.8429 11.8854H27.9974C27.5306 11.8854 27.1523 11.507 27.1523 11.0403C27.1523 10.5736 27.5307 10.1953 27.9974 10.1953H44.8429C45.3097 10.1953 45.6879 10.5736 45.6879 11.0403C45.6879 11.5069 45.3097 11.8854 44.8429 11.8854Z" fill="#9DC6FB"/>
<path d="M44.8429 15.6803H27.9974C27.5306 15.6803 27.1523 15.302 27.1523 14.8353C27.1523 14.3686 27.5307 13.9902 27.9974 13.9902H44.8429C45.3097 13.9902 45.6879 14.3686 45.6879 14.8353C45.6879 15.302 45.3097 15.6803 44.8429 15.6803Z" fill="#9DC6FB"/>
<path d="M44.8429 19.4733H27.9974C27.5306 19.4733 27.1523 19.0949 27.1523 18.6282C27.1523 18.1615 27.5307 17.7832 27.9974 17.7832H44.8429C45.3097 17.7832 45.6879 18.1615 45.6879 18.6282C45.6879 19.0949 45.3097 19.4733 44.8429 19.4733Z" fill="#9DC6FB"/>
<path d="M38.0136 23.2682H27.9974C27.5306 23.2682 27.1523 22.8899 27.1523 22.4232C27.1523 21.9565 27.5307 21.5781 27.9974 21.5781H38.0136C38.4804 21.5781 38.8587 21.9565 38.8587 22.4232C38.8588 22.8899 38.4804 23.2682 38.0136 23.2682Z" fill="#9DC6FB"/>
<path d="M28 28.8443H12.6341C12.1673 28.8443 11.7891 28.466 11.7891 27.9993C11.7891 27.5326 12.1674 27.1543 12.6341 27.1543H28C28.4668 27.1543 28.845 27.5326 28.845 27.9993C28.845 28.466 28.4668 28.8443 28 28.8443Z" fill="#9DC6FB"/>
<path d="M28 32.6383H12.6341C12.1673 32.6383 11.7891 32.26 11.7891 31.7933C11.7891 31.3266 12.1674 30.9482 12.6341 30.9482H28C28.4668 30.9482 28.845 31.3266 28.845 31.7933C28.845 32.26 28.4668 32.6383 28 32.6383Z" fill="#9DC6FB"/>
<path d="M21.1707 36.4322H12.6341C12.1673 36.4322 11.7891 36.0539 11.7891 35.5872C11.7891 35.1205 12.1674 34.7422 12.6341 34.7422H21.1707C21.6375 34.7422 22.0157 35.1205 22.0157 35.5872C22.0158 36.0539 21.6375 36.4322 21.1707 36.4322Z" fill="#9DC6FB"/>
</g>
<defs>
<clipPath id="clip0">
<rect width="56" height="56" fill="white"/>
</clipPath>
</defs>
</svg>
