<svg width="56" height="56" viewBox="0 0 56 56" fill="none" xmlns="http://www.w3.org/2000/svg">
<g clip-path="url(#clip0)">
<path d="M37.3511 37.3506L42.6647 29.299L37.3511 27.93C36.6551 25.8418 35.4715 23.8693 33.8009 22.1987C32.1534 20.5512 30.2045 19.3446 28.0697 18.6485L28 18.7182L21.5263 18.4629L18.649 18.6485C16.5143 19.3446 14.5652 20.5512 12.9177 22.1987L4.31583 30.8006C-1.43861 36.555 -1.43861 45.9075 4.31583 51.6619C10.2327 57.5788 19.5838 57.2772 25.199 51.6619L33.8009 43.0819C35.4717 41.4111 36.6552 39.4389 37.3511 37.3506ZM19.3982 45.8609C16.7993 48.4597 12.646 48.3902 10.1168 45.8609C7.56438 43.3085 7.56438 39.1318 10.1168 36.5794L18.649 28.0691L23.313 32.6866L28.0001 37.2809L19.3982 45.8609Z" fill="#366496"/>
<path d="M33.7976 43.0814L25.1957 51.6615C19.5804 57.2768 10.2294 57.5783 4.3125 51.6615L10.1133 45.8605C12.6426 48.3898 16.7959 48.4594 19.3948 45.8605L27.9967 37.2806L23.3096 32.6862L33.7976 22.1982C35.4682 23.8688 36.6517 25.8412 37.3478 27.9295L42.6613 29.2985L37.3478 37.3502C36.6517 39.4386 35.4683 41.4107 33.7976 43.0814Z" fill="#294872"/>
<path d="M45.4029 47.7223L43.0825 45.4019C42.4412 44.7606 42.4412 43.7228 43.0825 43.0815C43.7238 42.4403 44.7616 42.4402 45.4029 43.0815L47.7233 45.4019C48.3646 46.0431 48.3646 47.081 47.7233 47.7223C47.0819 48.3635 46.0442 48.3635 45.4029 47.7223Z" fill="#D2C5C2"/>
<path d="M10.5983 12.9175L8.27782 10.5971C7.63656 9.95582 7.63656 8.91796 8.27782 8.27681C8.91909 7.63565 9.95695 7.63554 10.5981 8.27681L12.9184 10.5971C13.5597 11.2384 13.5597 12.2762 12.9184 12.9174C12.2771 13.5585 11.2395 13.5586 10.5983 12.9175Z" fill="#DFD7D5"/>
<path d="M48.6029 33.5193C48.8374 32.6434 49.737 32.1246 50.6128 32.3591L53.7829 33.2088C54.6588 33.4388 55.1753 34.3429 54.9431 35.2187C54.7086 36.0946 53.809 36.6134 52.9333 36.3789L49.7632 35.5292C48.8931 35.2963 48.3682 34.4003 48.6029 33.5193Z" fill="#D2C5C2"/>
<path d="M1.05607 20.7801C1.29057 19.9042 2.19018 19.3853 3.06594 19.6198L6.23607 20.4697C7.10855 20.6985 7.62961 21.6027 7.39632 22.4795C7.16182 23.3554 6.26221 23.8743 5.38644 23.6398L2.21632 22.7899C1.34624 22.5571 0.821239 21.6611 1.05607 20.7801Z" fill="#DFD7D5"/>
<path d="M33.2109 53.7815L32.361 50.6114C32.1265 49.7355 32.6454 48.836 33.5213 48.6015C34.3972 48.367 35.2956 48.8825 35.5312 49.7617L36.3809 52.9319C36.6154 53.8077 36.0965 54.7072 35.2206 54.9417C34.3398 55.1765 33.4437 54.6516 33.2109 53.7815Z" fill="#D2C5C2"/>
<path d="M20.4687 6.23676L19.6188 3.06663C19.3843 2.19075 19.9032 1.29125 20.7791 1.05675C21.655 0.824551 22.5556 1.33774 22.789 2.217L23.6388 5.38713C23.8733 6.26301 23.3544 7.16251 22.4786 7.39701C21.5977 7.63151 20.7017 7.10662 20.4687 6.23676Z" fill="#DFD7D5"/>
<path d="M51.6838 4.33726C45.9294 -1.41717 36.5783 -1.44047 30.8006 4.33726L22.1987 12.9173C20.5281 14.5879 19.3447 16.5601 18.6485 18.6485C17.6275 21.7115 17.6276 25.0063 18.6486 28.0692C19.3447 30.1574 20.5281 32.13 22.1987 33.8006C23.8231 35.4249 25.7721 36.6313 27.9301 37.3507L27.9996 37.2811C30.5521 34.7286 30.552 30.552 27.9996 27.9997C25.4473 25.4473 25.4473 21.2706 27.9996 18.7182L36.6015 10.1382C37.8547 8.88508 39.4789 8.2355 41.2424 8.2355C41.2887 8.18923 41.6831 8.21231 41.7761 8.25869C43.0291 8.25858 44.6764 8.93145 45.883 10.1382C48.4354 12.6906 48.4355 16.8672 45.883 19.4196L37.3509 27.9299C38.3719 30.9928 38.3719 34.2878 37.3509 37.3507C39.4623 36.6314 41.4579 35.4248 43.0821 33.8005L51.684 25.2205C57.4385 19.4659 57.4383 10.0917 51.6838 4.33726Z" fill="#2F80ED"/>
<path d="M28.0001 37.2805L27.9306 37.35C25.7727 36.6308 23.8234 35.4243 22.1992 33.7999L28.0001 27.999C30.5525 30.5515 30.5526 34.7281 28.0001 37.2805Z" fill="#2576E3"/>
<path d="M51.6847 25.2201L43.0828 33.8001C41.4586 35.4245 39.463 36.6311 37.3516 37.3503C38.3726 34.2874 38.3726 30.9925 37.3516 27.9295L45.8837 19.4193C48.4362 16.8668 48.4361 12.6902 45.8837 10.1378L51.6846 4.33691C57.4392 10.0912 57.4394 19.4654 51.6847 25.2201Z" fill="#2576E3"/>
</g>
<defs>
<clipPath id="clip0">
<rect width="56" height="56" fill="white"/>
</clipPath>
</defs>
</svg>
