<svg width="56" height="56" viewBox="0 0 56 56" fill="none" xmlns="http://www.w3.org/2000/svg">
<g clip-path="url(#clip0)">
<path d="M11.9704 40.4414L1.23438 54.7628C2.88441 56.4128 5.5599 56.4128 7.20994 54.7628L16.7508 45.2219L11.9704 40.4414Z" fill="#1B74D6"/>
<path d="M14.3637 42.8305L4.82288 52.3714C3.17285 54.0214 1.56744 55.0915 1.23752 54.7616C-0.412508 53.1115 -0.412508 50.436 1.23752 48.786L10.7784 39.2451L14.3637 42.8305Z" fill="#1E8AFF"/>
<path d="M11.9688 40.4385L17.9434 34.4638L21.5282 38.0486L15.5535 44.0233L11.9688 40.4385Z" fill="#D1F0DE"/>
<path d="M16.1493 31.4844L14.5876 35.1354C14.4519 35.4529 14.5229 35.8212 14.767 36.0653L19.9341 41.2323C20.1783 41.4765 20.5465 41.5476 20.864 41.4117L24.5151 39.85L16.1493 31.4844Z" fill="#9FDFBA"/>
<path d="M17.9484 44.0269L15.5582 41.6367L13.168 44.0269L15.5582 46.4171C16.2182 47.0772 17.2883 47.0772 17.9484 46.4171C18.6084 45.7571 18.6084 44.687 17.9484 44.0269Z" fill="#6FCF97"/>
<path d="M15.5605 44.0263C16.2205 43.3662 16.2205 42.2961 15.5605 41.6361L11.9751 38.0507C11.315 37.3906 10.2449 37.3906 9.58489 38.0507C8.92483 38.7108 8.92483 39.7809 9.58489 40.4409L13.1702 44.0263C13.8303 44.6863 14.9004 44.6863 15.5605 44.0263Z" fill="#9FDFBA"/>
<path d="M34.759 42.479C46.4893 42.479 55.9985 32.9697 55.9985 21.2395C55.9985 9.50924 46.4893 0 34.759 0C23.0288 0 13.5195 9.50924 13.5195 21.2395C13.5195 32.9697 23.0288 42.479 34.759 42.479Z" fill="#6FCF97"/>
<path d="M34.7617 3.38086V39.0992C44.6251 39.0992 52.6209 31.1034 52.6209 21.2401C52.6209 11.3767 44.6251 3.38086 34.7617 3.38086Z" fill="#DBEBFF"/>
<path d="M49.2404 21.2401C49.2404 11.3767 42.7581 3.38086 34.7615 3.38086C24.8982 3.38086 16.9023 11.3767 16.9023 21.2401C16.9023 31.1034 24.8982 39.0992 34.7615 39.0992C42.7581 39.0992 49.2404 31.1034 49.2404 21.2401Z" fill="white"/>
</g>
<defs>
<clipPath id="clip0">
<rect width="56" height="56" fill="white"/>
</clipPath>
</defs>
</svg>
