<svg width="531" height="531" viewBox="0 0 531 531" fill="none" xmlns="http://www.w3.org/2000/svg">
<path d="M124.448 45.0831C101.625 51.0516 79.7375 65.516 61.0356 85.7577C42.3338 105.999 27.4871 135.863 24.4285 169.794C21.3168 204.723 30.8005 239.525 43.0878 269.771C55.3752 300.016 62.1401 326.588 72.2504 358.511C81.1499 386.601 86.0564 417.697 98.0251 443.163C114.337 477.838 142.3 497.814 170.613 503.697C198.926 509.581 236.159 504.005 263.963 494.086C321.873 473.42 377.448 438.958 428.573 393.695C451.703 373.199 474.515 349.654 489.383 316.424C506.184 278.872 511.228 230.338 502.817 187.083C495.957 151.665 479.835 118.945 458.659 99.1177C449.621 90.6642 359.256 -16.3961 124.448 45.0831Z" fill="white"/>
<path opacity="0.7" d="M488.976 316.296C474.108 349.526 451.285 373.071 428.165 393.568C377.062 438.83 321.498 473.292 263.555 493.969C241.933 501.679 214.608 506.766 190.214 505.874C183.491 505.673 176.797 504.898 170.206 503.559C141.882 497.665 113.92 477.689 97.6179 443.025C96.0462 439.669 94.5912 436.217 93.2212 432.681C84.2792 409.423 79.5639 382.767 71.8538 358.341C61.7436 326.407 54.9468 299.835 42.6807 269.59C30.4146 239.344 20.9097 204.542 24.0213 169.613C27.0799 135.714 41.9373 105.84 60.6391 85.5982C79.3409 65.3565 101.218 50.9026 124.051 44.9342C358.849 -16.5556 449.225 90.5152 458.252 98.9581C479.428 118.754 495.528 151.517 502.42 186.955C510.821 230.211 505.776 278.744 488.976 316.296Z" fill="white"/>
<path d="M294.058 480.108C293.91 480.353 295.195 481.638 290.872 481.701C280.167 481.861 261.274 480.639 254.425 470.731C244.644 456.575 268.007 458.465 265.937 450.744C263.866 443.023 238.569 448.62 233.949 437.565C229.329 426.509 247.553 429.122 246.852 423.472C246.152 417.822 226.781 424.608 220.77 412.852C214.759 401.096 231.39 407.744 228.756 402.859C226.122 397.973 205.392 377.434 214.153 373.197C222.915 368.96 242.328 390.37 248.86 392.78C255.391 395.191 257.451 374.726 265.926 381.831C274.401 388.936 267.912 419.67 277.916 423.769C285.35 426.828 281.548 415.645 290.83 416.335C303.393 417.217 306.399 460.663 294.058 480.108Z" fill="#6ACDA5"/>
<g opacity="0.1">
<path opacity="0.1" d="M294.058 480.108C293.91 480.353 295.195 481.638 290.872 481.701C280.167 481.861 261.274 480.639 254.425 470.731C244.644 456.575 268.007 458.465 265.937 450.744C263.866 443.023 238.569 448.62 233.949 437.565C229.329 426.509 247.553 429.122 246.852 423.472C246.152 417.822 226.781 424.608 220.77 412.852C214.759 401.096 231.39 407.744 228.756 402.859C226.122 397.973 205.392 377.434 214.153 373.197C222.915 368.96 242.328 390.37 248.86 392.78C255.391 395.191 257.451 374.726 265.926 381.831C274.401 388.936 267.912 419.67 277.916 423.769C285.35 426.828 281.548 415.645 290.83 416.335C303.393 417.217 306.399 460.663 294.058 480.108Z" fill="black"/>
</g>
<path d="M294.316 482.371C294.195 482.372 294.078 482.331 293.983 482.256C293.889 482.18 293.823 482.075 293.796 481.957C293.78 481.881 293.758 481.807 293.732 481.734L293.541 481.086C292.936 479.09 292.383 477.327 291.842 475.691C290.567 471.953 289.24 468.395 287.87 465.124C286.5 461.853 285.151 458.837 283.622 455.726C283.017 454.515 282.411 453.304 281.785 452.147C278.353 445.633 274.411 439.401 269.996 433.509C267.639 430.376 265.154 427.392 262.616 424.63C259.722 421.395 256.552 418.417 253.143 415.731C253.087 415.69 253.039 415.639 253.003 415.581C252.967 415.522 252.943 415.457 252.932 415.389C252.921 415.321 252.924 415.251 252.94 415.184C252.956 415.117 252.985 415.054 253.026 414.998C253.066 414.942 253.117 414.895 253.176 414.859C253.235 414.823 253.3 414.799 253.368 414.788C253.436 414.777 253.505 414.78 253.572 414.796C253.639 414.812 253.703 414.841 253.758 414.881C257.244 417.591 260.472 420.616 263.401 423.919C265.95 426.701 268.457 429.707 270.835 432.871C275.282 438.807 279.252 445.086 282.709 451.648C283.388 452.901 284.026 454.175 284.567 455.258C286.107 458.391 287.562 461.577 288.815 464.721C290.068 467.864 291.523 471.592 292.798 475.341C293.35 476.976 293.913 478.75 294.518 480.757L294.709 481.384C294.74 481.488 294.765 481.595 294.784 481.702C294.799 481.771 294.801 481.841 294.789 481.91C294.777 481.98 294.752 482.046 294.715 482.105C294.677 482.164 294.628 482.215 294.571 482.256C294.513 482.296 294.448 482.324 294.38 482.339L294.316 482.371Z" fill="#263238"/>
<path d="M262.998 424.799C262.939 424.81 262.878 424.81 262.818 424.799C262.754 424.799 256.733 422.675 246.888 424.523C246.75 424.548 246.608 424.517 246.492 424.438C246.377 424.358 246.298 424.236 246.272 424.099C246.258 424.03 246.258 423.96 246.272 423.891C246.286 423.823 246.314 423.758 246.354 423.7C246.393 423.643 246.444 423.594 246.503 423.557C246.562 423.519 246.628 423.494 246.697 423.483C256.807 421.603 262.882 423.706 263.126 423.801C263.258 423.847 263.366 423.943 263.428 424.068C263.489 424.193 263.499 424.338 263.455 424.47C263.418 424.562 263.355 424.642 263.274 424.7C263.193 424.759 263.098 424.793 262.998 424.799Z" fill="#263238"/>
<path d="M270.407 433.732C270.338 433.73 270.269 433.715 270.205 433.687C270.141 433.659 270.083 433.619 270.035 433.569C269.987 433.518 269.949 433.459 269.923 433.394C269.898 433.329 269.886 433.26 269.887 433.19C270.662 411.886 258.768 394.958 258.651 394.735C258.603 394.679 258.567 394.614 258.546 394.543C258.525 394.473 258.518 394.399 258.527 394.326C258.536 394.252 258.56 394.182 258.598 394.119C258.635 394.055 258.685 394.001 258.745 393.958C258.805 393.915 258.873 393.885 258.945 393.87C259.017 393.855 259.092 393.855 259.164 393.87C259.236 393.885 259.304 393.915 259.364 393.958C259.424 394.001 259.474 394.055 259.511 394.119C259.639 394.289 271.735 411.557 270.949 433.222C270.943 433.361 270.884 433.492 270.782 433.587C270.681 433.683 270.546 433.734 270.407 433.732Z" fill="#263238"/>
<path d="M282.257 452.412C282.114 452.411 281.976 452.354 281.875 452.252C281.79 452.167 273.23 443.852 261.644 447.654C261.577 447.676 261.507 447.685 261.438 447.68C261.368 447.676 261.3 447.657 261.237 447.626C261.175 447.595 261.119 447.552 261.073 447.499C261.027 447.447 260.992 447.385 260.969 447.319C260.947 447.253 260.938 447.183 260.943 447.113C260.947 447.044 260.966 446.975 260.997 446.913C261.028 446.85 261.071 446.794 261.124 446.748C261.176 446.702 261.238 446.667 261.304 446.645C273.527 442.62 282.544 451.413 282.629 451.498C282.7 451.574 282.748 451.668 282.768 451.77C282.787 451.873 282.776 451.978 282.737 452.075C282.698 452.171 282.632 452.254 282.547 452.314C282.461 452.373 282.361 452.407 282.257 452.412Z" fill="#263238"/>
<path d="M288.363 465.454C288.289 465.468 288.214 465.468 288.14 465.454C288.012 465.396 287.912 465.289 287.863 465.158C287.813 465.027 287.817 464.881 287.875 464.753C287.928 464.646 292.781 453.803 290.731 438.542C290.721 438.473 290.724 438.403 290.741 438.335C290.757 438.267 290.787 438.203 290.829 438.147C290.87 438.091 290.922 438.044 290.982 438.007C291.042 437.971 291.108 437.947 291.177 437.937C291.318 437.919 291.46 437.956 291.573 438.042C291.686 438.127 291.762 438.254 291.783 438.394C293.907 453.984 288.894 465.082 288.841 465.199C288.792 465.281 288.722 465.348 288.638 465.393C288.554 465.438 288.458 465.459 288.363 465.454Z" fill="#263238"/>
<path d="M297.499 480.937H297.446C297.376 480.93 297.308 480.91 297.246 480.877C297.184 480.844 297.129 480.799 297.085 480.744C297.04 480.69 297.007 480.628 296.987 480.56C296.967 480.493 296.96 480.422 296.968 480.353C296.973 480.254 296.973 480.154 296.968 480.055V479.854C296.968 479.28 297.063 478.707 297.106 478.133C297.148 477.56 297.18 477.326 297.212 476.933C297.382 474.936 297.573 472.802 297.807 470.635C298.582 463.148 299.602 455.863 300.844 448.981C301.025 447.983 301.195 447.07 301.375 446.156C302.745 439.094 304.359 432.35 306.197 426.148C306.43 425.352 306.674 424.555 306.919 423.759L307.205 422.845C307.492 421.943 307.79 421.029 308.087 420.137C308.724 418.215 309.468 415.942 310.137 413.648C311.453 409.22 312.622 404.76 313.609 400.384C313.609 400.384 313.609 400.331 313.609 400.299C314.236 397.538 314.746 395.042 315.17 392.653C316.897 383.347 317.824 373.91 317.942 364.446C317.942 360.708 317.868 357.012 317.613 353.423C317.362 349.659 316.908 345.912 316.254 342.197C316.201 341.932 316.158 341.677 316.116 341.433V341.22V341.135C316.082 341.062 316.065 340.982 316.065 340.902C316.065 340.821 316.082 340.741 316.116 340.668C316.183 340.547 316.295 340.456 316.427 340.414C316.559 340.373 316.703 340.384 316.827 340.445C316.911 340.488 316.982 340.554 317.033 340.634C317.083 340.714 317.111 340.807 317.114 340.902C317.119 340.937 317.119 340.973 317.114 341.008L317.178 341.273L317.305 342.027C317.972 345.78 318.433 349.566 318.686 353.369C318.941 356.97 319.047 360.708 319.015 364.478C318.895 374.003 317.961 383.5 316.222 392.865C315.797 395.265 315.287 397.782 314.661 400.554V400.607C313.673 405.004 312.537 409.475 311.177 413.914C311.184 413.931 311.184 413.95 311.177 413.967C310.498 416.293 309.754 418.597 309.053 420.541C308.745 421.433 308.459 422.325 308.172 423.228L307.896 424.141C307.651 424.927 307.407 425.713 307.174 426.509C305.347 432.69 303.733 439.391 302.373 446.422C302.193 447.335 302.023 448.238 301.853 449.151C300.61 456.086 299.591 463.35 298.826 470.805C298.582 472.929 298.391 475.053 298.221 477.082C298.221 477.485 298.157 477.889 298.115 478.292C298.072 478.696 298.03 479.429 297.987 480.002V480.162C297.987 480.257 297.987 480.385 297.987 480.523C297.96 480.635 297.899 480.735 297.811 480.81C297.723 480.884 297.614 480.929 297.499 480.937Z" fill="#263238"/>
<path d="M316.668 341.04C315.489 339.933 314.189 338.964 312.791 338.151C311.255 337.279 309.613 336.608 307.906 336.154" fill="white"/>
<path d="M316.67 341.57C316.593 341.57 316.517 341.553 316.447 341.52C316.377 341.487 316.316 341.439 316.267 341.379C315.118 340.299 313.845 339.357 312.475 338.575C310.984 337.728 309.393 337.072 307.739 336.621C307.598 336.586 307.477 336.496 307.402 336.372C307.328 336.247 307.305 336.098 307.341 335.958C307.376 335.817 307.465 335.696 307.59 335.621C307.714 335.546 307.863 335.524 308.004 335.559C309.753 336.03 311.434 336.722 313.006 337.62C314.441 338.45 315.777 339.44 316.989 340.572L317.053 340.636C317.104 340.682 317.144 340.741 317.169 340.806C317.2 340.868 317.217 340.936 317.221 341.006C317.224 341.075 317.214 341.145 317.19 341.21C317.166 341.275 317.13 341.335 317.082 341.386C317.035 341.437 316.978 341.478 316.915 341.507C316.839 341.546 316.755 341.567 316.67 341.57Z" fill="#263238"/>
<path d="M318.205 353.827C318.097 353.826 317.992 353.792 317.904 353.729C317.816 353.667 317.749 353.579 317.712 353.477C317.675 353.376 317.67 353.265 317.697 353.161C317.725 353.056 317.783 352.963 317.866 352.892L322.496 348.931C322.603 348.84 322.742 348.794 322.882 348.805C323.023 348.816 323.153 348.883 323.245 348.99C323.336 349.097 323.381 349.236 323.37 349.376C323.36 349.516 323.293 349.647 323.186 349.738L318.598 353.699C318.489 353.791 318.348 353.837 318.205 353.827Z" fill="#263238"/>
<path d="M310.702 414.18C310.635 414.185 310.568 414.178 310.504 414.156C310.441 414.135 310.382 414.101 310.332 414.056C310.283 414.011 310.243 413.957 310.215 413.896C310.187 413.835 310.172 413.769 310.171 413.702C309.977 412.569 309.667 411.458 309.247 410.388C308.65 408.767 307.812 407.246 306.762 405.875C305.982 404.845 305.088 403.908 304.096 403.082C303.988 402.99 303.92 402.859 303.908 402.718C303.896 402.576 303.941 402.436 304.032 402.328C304.124 402.219 304.255 402.152 304.396 402.14C304.538 402.128 304.678 402.172 304.786 402.264C305.832 403.147 306.779 404.141 307.611 405.227C308.719 406.682 309.607 408.292 310.245 410.006C310.696 411.169 311.023 412.375 311.222 413.606C311.223 413.749 311.17 413.888 311.073 413.994C310.977 414.1 310.844 414.166 310.702 414.18Z" fill="#263238"/>
<path d="M306.729 426.839C306.659 426.849 306.587 426.849 306.517 426.839C306.389 426.781 306.288 426.675 306.237 426.544C306.185 426.413 306.187 426.268 306.241 426.138C306.951 424.506 307.99 423.037 309.293 421.824C310.596 420.611 312.134 419.679 313.813 419.086C313.879 419.063 313.949 419.053 314.019 419.058C314.089 419.062 314.158 419.079 314.221 419.11C314.284 419.141 314.34 419.183 314.387 419.236C314.434 419.288 314.469 419.349 314.492 419.415C314.515 419.482 314.525 419.552 314.521 419.622C314.517 419.692 314.499 419.76 314.469 419.823C314.438 419.887 314.395 419.943 314.343 419.99C314.291 420.036 314.229 420.072 314.163 420.095C312.625 420.638 311.214 421.491 310.019 422.601C308.824 423.712 307.871 425.057 307.218 426.552C307.171 426.64 307.1 426.714 307.014 426.764C306.928 426.815 306.829 426.841 306.729 426.839Z" fill="#263238"/>
<path d="M314.182 400.905C314.112 400.902 314.044 400.886 313.981 400.856C313.919 400.827 313.862 400.785 313.816 400.734C313.769 400.682 313.733 400.622 313.711 400.557C313.688 400.491 313.678 400.422 313.682 400.353C313.682 400.077 315.095 373.049 300.694 362.938C300.579 362.857 300.5 362.733 300.476 362.593C300.453 362.454 300.485 362.311 300.567 362.195C300.648 362.08 300.773 362.001 300.912 361.977C301.051 361.953 301.195 361.986 301.31 362.068C316.178 372.528 314.808 399.238 314.734 400.406C314.731 400.475 314.715 400.543 314.685 400.606C314.656 400.669 314.614 400.725 314.563 400.772C314.511 400.818 314.451 400.854 314.386 400.877C314.32 400.9 314.251 400.909 314.182 400.905Z" fill="#263238"/>
<path d="M314.356 463.573C314.494 470.285 297.852 478.229 297.852 478.229C297.852 478.229 280.86 470.996 280.744 464.284C280.627 457.573 287.944 448.758 297.226 448.556C306.508 448.354 314.165 456.861 314.356 463.573Z" fill="#6ACDA5"/>
<path d="M331.429 382.065C329.475 388.83 316.253 393.28 316.253 393.28C316.253 393.28 307.438 382.458 309.392 375.704C311.346 368.949 318.791 361.653 324.876 363.416C330.961 365.179 333.372 375.311 331.429 382.065Z" fill="#6ACDA5"/>
<path d="M296.301 402.87C297.919 404.315 299.791 405.446 301.823 406.204C302.846 406.569 303.95 406.646 305.013 406.427C306.077 406.207 307.06 405.701 307.855 404.962C309.671 402.997 309.289 399.843 308.259 397.369C306.199 392.473 298.351 384.03 292.063 386.196C282.983 389.34 292.393 399.779 296.301 402.87Z" fill="#6ACDA5"/>
<path d="M314.352 415.73C313.141 417.153 311.835 418.916 312.43 420.743C312.778 421.496 313.366 422.113 314.102 422.497C314.837 422.882 315.68 423.012 316.497 422.867C318.136 422.535 319.678 421.838 321.011 420.828C324.197 418.704 330.866 414.286 326.852 409.847C322.625 405.259 316.89 412.725 314.352 415.73Z" fill="#6ACDA5"/>
<path d="M289.6 353.508C288.916 353.526 288.255 353.76 287.712 354.176C287.168 354.591 286.77 355.168 286.573 355.823C286.255 357.385 287.519 358.797 288.75 359.806C291.83 362.323 301.091 369.152 303.385 362.896C305.562 356.992 293.795 353.168 289.6 353.508Z" fill="#6ACDA5"/>
<path d="M307.643 333.245C305.678 333.372 303.756 332.608 301.802 332.682C299.848 332.756 297.618 334.254 298 336.176C298.383 338.098 300.528 338.608 302.333 338.778C305.416 339.063 308.523 338.938 311.573 338.406C312.296 338.368 312.977 338.052 313.474 337.525C314.302 336.378 313.091 334.785 311.753 334.339C310.415 333.893 308.896 333.978 307.696 333.277L307.643 333.245Z" fill="#6ACDA5"/>
<path d="M326.311 347.274C328.276 347.391 330.188 346.605 332.152 346.658C334.117 346.711 336.337 348.208 335.976 350.131C335.614 352.053 333.469 352.584 331.664 352.722C328.581 353.027 325.471 352.927 322.414 352.425C321.69 352.386 321.009 352.071 320.513 351.543C319.674 350.417 320.874 348.803 322.212 348.357C323.55 347.911 325.069 347.975 326.258 347.231L326.311 347.274Z" fill="#6ACDA5"/>
<path d="M316.669 341.805C316.537 341.803 316.41 341.751 316.314 341.661C316.218 341.571 316.159 341.448 316.148 341.316C315.978 339.384 315.607 333.012 317.752 332.353C317.82 332.323 317.895 332.308 317.97 332.309C318.044 332.309 318.118 332.326 318.186 332.357C318.254 332.389 318.315 332.434 318.364 332.49C318.414 332.547 318.451 332.613 318.472 332.685C318.494 332.756 318.501 332.832 318.491 332.906C318.482 332.98 318.457 333.052 318.418 333.116C318.379 333.18 318.327 333.235 318.265 333.277C318.204 333.32 318.133 333.349 318.06 333.362C317.168 333.638 316.892 337.61 317.2 341.221C317.207 341.29 317.2 341.36 317.18 341.427C317.16 341.493 317.126 341.555 317.082 341.608C317.037 341.662 316.982 341.706 316.921 341.738C316.859 341.77 316.791 341.789 316.722 341.794L316.669 341.805Z" fill="#263238"/>
<path d="M315.258 333.043C316.522 330.431 317.881 327.68 320.281 326.044C322.681 324.409 326.451 324.388 328.097 326.788C329.935 329.464 327.906 333.404 324.911 334.721C321.917 336.038 318.539 335.507 315.353 334.965V333.532L315.258 333.043Z" fill="#6ACDA5"/>
<path d="M306.831 467.863C315.476 469.531 331.682 464.04 338.861 457.243C346.04 450.447 328.687 452.369 331.427 446.422C334.167 440.474 353.878 448.631 359.209 440.347C364.54 432.063 349.407 431.554 350.787 427.083C352.168 422.612 367.301 426.201 373.865 417.525C380.428 408.848 366.038 411.864 368.831 408.285C371.624 404.706 391.366 391.049 384.909 386.376C378.452 381.703 359.644 396.221 354.016 397.23C348.387 398.239 349.216 386.1 341.336 390.614C333.455 395.127 334.294 420.955 325.607 422.835C319.14 424.247 323.685 413.277 316.23 414.944C303.22 417.875 303.327 467.184 306.831 467.863Z" fill="#6ACDA5"/>
<g opacity="0.2">
<path opacity="0.2" d="M306.831 467.863C315.476 469.531 331.682 464.04 338.861 457.243C346.04 450.447 328.687 452.369 331.427 446.422C334.167 440.474 353.878 448.631 359.209 440.347C364.54 432.063 349.407 431.554 350.787 427.083C352.168 422.612 367.301 426.201 373.865 417.525C380.428 408.848 366.038 411.864 368.831 408.285C371.624 404.706 391.366 391.049 384.909 386.376C378.452 381.703 359.644 396.221 354.016 397.23C348.387 398.239 349.216 386.1 341.336 390.614C333.455 395.127 334.294 420.955 325.607 422.835C319.14 424.247 323.685 413.277 316.23 414.944C303.22 417.875 303.327 467.184 306.831 467.863Z" fill="white"/>
</g>
<path d="M303.861 477.963C303.802 477.974 303.74 477.974 303.681 477.963C303.55 477.913 303.445 477.814 303.387 477.686C303.33 477.559 303.324 477.414 303.373 477.283L303.521 476.869C303.914 475.807 304.318 474.83 304.721 473.832C305.614 471.644 306.474 469.679 307.323 467.821C308.821 464.529 310.509 461.183 312.272 457.891C316.102 450.818 320.417 444.02 325.186 437.543C327.438 434.485 329.891 431.363 332.482 428.283C347.35 410.622 361.018 401.085 361.156 400.989C361.273 400.91 361.416 400.881 361.555 400.908C361.693 400.935 361.815 401.016 361.894 401.133C361.973 401.25 362.002 401.393 361.975 401.531C361.949 401.67 361.868 401.792 361.751 401.871C361.623 401.956 348.04 411.429 333.289 428.962C330.719 432.032 328.277 435.133 326.046 438.17C321.304 444.59 317.013 451.332 313.207 458.348C311.433 461.619 309.777 464.932 308.29 468.214C307.44 470.051 306.591 472.005 305.709 474.182C305.306 475.181 304.902 476.179 304.52 477.198L304.36 477.602C304.325 477.707 304.258 477.798 304.168 477.862C304.079 477.927 303.972 477.962 303.861 477.963Z" fill="#263238"/>
<path d="M340.294 422.315C340.158 422.318 340.026 422.267 339.927 422.174C339.828 422.08 339.769 421.952 339.763 421.816C339.754 421.698 339.786 421.58 339.854 421.483C339.922 421.386 340.021 421.316 340.135 421.284C340.17 421.274 340.207 421.274 340.241 421.284L340.485 421.221C346.633 419.808 353.005 419.667 359.209 420.807C359.277 420.82 359.342 420.848 359.4 420.887C359.457 420.926 359.507 420.976 359.545 421.034C359.584 421.092 359.611 421.157 359.624 421.226C359.637 421.294 359.637 421.365 359.623 421.433C359.594 421.569 359.514 421.688 359.399 421.766C359.284 421.843 359.143 421.872 359.007 421.847C352.95 420.739 346.73 420.88 340.73 422.262L340.475 422.315H340.326H340.294Z" fill="#263238"/>
<path d="M332.873 429.324C332.803 429.319 332.735 429.3 332.673 429.268C332.61 429.236 332.555 429.192 332.51 429.139C332.464 429.086 332.43 429.024 332.408 428.957C332.387 428.891 332.379 428.821 332.385 428.751C333.893 409.635 346.297 395.829 346.414 395.659C346.51 395.564 346.639 395.51 346.775 395.507C346.91 395.504 347.042 395.553 347.142 395.644C347.242 395.735 347.304 395.861 347.315 395.996C347.326 396.131 347.284 396.265 347.199 396.37C347.083 396.508 334.923 410.07 333.394 428.836C333.385 428.968 333.327 429.092 333.23 429.183C333.134 429.274 333.006 429.324 332.873 429.324Z" fill="#263238"/>
<path d="M324.804 438.935C324.721 438.933 324.64 438.911 324.567 438.872C324.493 438.834 324.429 438.779 324.38 438.712C324.299 438.597 324.266 438.456 324.288 438.317C324.31 438.178 324.384 438.054 324.496 437.969C327.316 436.167 330.539 435.094 333.876 434.848C337.213 434.601 340.559 435.188 343.612 436.556C343.739 436.616 343.837 436.723 343.886 436.854C343.935 436.984 343.933 437.129 343.878 437.257C343.82 437.385 343.714 437.485 343.582 437.535C343.451 437.585 343.305 437.58 343.177 437.523C340.294 436.232 337.136 435.676 333.986 435.904C330.835 436.132 327.79 437.137 325.123 438.829C325.032 438.9 324.92 438.938 324.804 438.935Z" fill="#263238"/>
<path d="M313.888 455.163C313.775 455.164 313.666 455.13 313.574 455.065C313.482 455 313.414 454.908 313.378 454.802C311.38 446.956 311.428 438.729 313.516 430.907C313.551 430.766 313.641 430.645 313.765 430.57C313.89 430.495 314.039 430.473 314.18 430.509C314.321 430.544 314.442 430.633 314.516 430.758C314.591 430.882 314.613 431.031 314.578 431.172C312.533 438.798 312.478 446.82 314.419 454.473C314.442 454.539 314.451 454.609 314.447 454.679C314.442 454.749 314.423 454.817 314.391 454.88C314.36 454.942 314.315 454.997 314.262 455.042C314.208 455.088 314.146 455.121 314.079 455.142L313.888 455.163Z" fill="#263238"/>
<path d="M495.693 244.44C495.622 244.435 495.554 244.415 495.492 244.382C495.43 244.349 495.375 244.304 495.331 244.249L490.213 238.036L484.276 242.773C484.206 242.825 484.124 242.861 484.037 242.876C483.95 242.89 483.861 242.884 483.777 242.857C483.694 242.831 483.62 242.784 483.56 242.721C483.501 242.658 483.458 242.581 483.437 242.496L476.247 216.254C476.222 216.155 476.225 216.05 476.257 215.952C476.289 215.854 476.348 215.768 476.428 215.702C476.508 215.634 476.607 215.593 476.711 215.583C476.816 215.574 476.921 215.597 477.012 215.649L501.077 228.393C501.155 228.435 501.223 228.496 501.273 228.57C501.322 228.644 501.354 228.729 501.364 228.818C501.369 228.906 501.354 228.994 501.319 229.076C501.284 229.157 501.23 229.229 501.162 229.285L495.077 234.138L500.089 240.224C500.177 240.332 500.219 240.472 500.205 240.611C500.191 240.75 500.123 240.878 500.015 240.967L496.075 244.291C495.971 244.388 495.834 244.441 495.693 244.44ZM490.255 236.825C490.332 236.825 490.409 236.842 490.478 236.875C490.548 236.908 490.61 236.957 490.659 237.016L495.767 243.208L498.9 240.564L493.834 234.415C493.748 234.302 493.706 234.163 493.717 234.022C493.734 233.879 493.807 233.749 493.919 233.661L499.792 228.977L477.49 217.157L484.138 241.434L489.841 236.878C489.968 236.81 490.115 236.791 490.255 236.825Z" fill="#263238"/>
<path d="M471.114 210.711C470.976 210.709 470.843 210.656 470.742 210.562L467.556 207.376C467.458 207.277 467.402 207.144 467.402 207.004C467.402 206.865 467.458 206.731 467.556 206.632C467.655 206.534 467.789 206.479 467.928 206.479C468.067 206.479 468.201 206.534 468.3 206.632L471.486 209.818C471.584 209.92 471.638 210.055 471.638 210.196C471.638 210.336 471.584 210.471 471.486 210.573C471.382 210.661 471.25 210.71 471.114 210.711Z" fill="#263238"/>
<path d="M468.961 215.905H464.437C464.296 215.905 464.161 215.849 464.062 215.749C463.962 215.65 463.906 215.515 463.906 215.374C463.906 215.233 463.962 215.098 464.062 214.998C464.161 214.899 464.296 214.843 464.437 214.843H468.961C469.102 214.843 469.237 214.899 469.337 214.998C469.436 215.098 469.492 215.233 469.492 215.374C469.492 215.515 469.436 215.65 469.337 215.749C469.237 215.849 469.102 215.905 468.961 215.905Z" fill="#263238"/>
<path d="M481.492 210.722C481.388 210.721 481.287 210.689 481.201 210.63C481.115 210.572 481.048 210.49 481.009 210.394C480.969 210.297 480.959 210.192 480.979 210.09C480.998 209.988 481.048 209.894 481.121 209.82L484.307 206.634C484.356 206.584 484.415 206.544 484.479 206.517C484.544 206.49 484.614 206.477 484.684 206.477C484.754 206.477 484.823 206.49 484.888 206.517C484.953 206.544 485.011 206.584 485.061 206.634C485.158 206.733 485.212 206.866 485.212 207.005C485.212 207.144 485.158 207.278 485.061 207.377L481.875 210.563C481.773 210.665 481.636 210.722 481.492 210.722Z" fill="#263238"/>
<path d="M467.918 224.294C467.814 224.292 467.713 224.26 467.627 224.202C467.541 224.143 467.474 224.061 467.435 223.965C467.395 223.869 467.384 223.763 467.404 223.661C467.424 223.559 467.474 223.465 467.546 223.391L470.732 220.205C470.782 220.155 470.841 220.116 470.905 220.089C470.97 220.062 471.039 220.048 471.109 220.048C471.18 220.048 471.249 220.062 471.314 220.089C471.378 220.116 471.437 220.155 471.486 220.205C471.584 220.304 471.638 220.438 471.638 220.577C471.638 220.716 471.584 220.849 471.486 220.948L468.3 224.134C468.198 224.235 468.061 224.292 467.918 224.294Z" fill="#263238"/>
<path d="M476.308 208.567C476.168 208.567 476.032 208.511 475.933 208.411C475.833 208.312 475.777 208.176 475.777 208.036V203.511C475.777 203.371 475.833 203.236 475.933 203.136C476.032 203.036 476.168 202.98 476.308 202.98C476.449 202.98 476.584 203.036 476.684 203.136C476.783 203.236 476.839 203.371 476.839 203.511V208.036C476.839 208.176 476.783 208.312 476.684 208.411C476.584 208.511 476.449 208.567 476.308 208.567Z" fill="#263238"/>
<path d="M381.665 337.716C382.606 337.714 383.542 337.843 384.447 338.098C384.877 338.23 385.299 338.386 385.711 338.566C387.168 339.21 388.45 340.193 389.449 341.433C389.695 341.729 389.915 342.046 390.108 342.378C391.058 343.855 391.598 345.559 391.67 347.313C391.743 349.068 391.347 350.811 390.522 352.361C389.81 352.32 389.116 352.117 388.494 351.766C389.222 350.538 389.607 349.137 389.609 347.71C389.61 345.854 388.951 344.058 387.75 342.644C387.494 342.325 387.21 342.03 386.901 341.762C385.59 340.598 383.925 339.91 382.175 339.808C382.005 339.798 381.835 339.798 381.665 339.808H370.578C368.474 339.808 366.456 340.644 364.968 342.132C363.48 343.62 362.645 345.637 362.645 347.741C362.645 349.845 363.48 351.863 364.968 353.351C366.456 354.839 368.474 355.675 370.578 355.675H380.38L380.571 355.919C381.102 356.577 381.696 357.182 382.345 357.724C382.122 357.724 381.899 357.724 381.665 357.724H370.578C367.925 357.724 365.38 356.67 363.504 354.794C361.628 352.918 360.574 350.373 360.574 347.72C360.574 345.067 361.628 342.522 363.504 340.646C365.38 338.77 367.925 337.716 370.578 337.716H381.665ZM381.665 336.654H370.578C369.125 336.654 367.686 336.94 366.343 337.496C365 338.053 363.78 338.868 362.753 339.895C361.725 340.923 360.91 342.143 360.354 343.485C359.798 344.828 359.512 346.267 359.512 347.72C359.512 349.173 359.798 350.612 360.354 351.955C360.91 353.298 361.725 354.517 362.753 355.545C363.78 356.573 365 357.388 366.343 357.944C367.686 358.5 369.125 358.786 370.578 358.786H381.665C382.815 358.791 383.959 358.612 385.053 358.255C383.646 357.504 382.403 356.479 381.4 355.239C381.23 355.027 381.06 354.814 380.911 354.591H370.578C368.755 354.591 367.008 353.867 365.719 352.579C364.431 351.29 363.707 349.542 363.707 347.72C363.707 345.898 364.431 344.15 365.719 342.861C367.008 341.573 368.755 340.849 370.578 340.849H381.665C381.799 340.838 381.934 340.838 382.069 340.849C383.596 340.919 385.052 341.515 386.189 342.538C386.46 342.762 386.705 343.015 386.922 343.292C387.976 344.513 388.553 346.075 388.547 347.688C388.551 349.259 388.01 350.783 387.018 352C387.984 352.839 389.202 353.332 390.48 353.402H391.117C392.205 351.643 392.771 349.612 392.751 347.544C392.73 345.476 392.123 343.456 391 341.72C390.79 341.346 390.549 340.99 390.278 340.658C389.173 339.279 387.752 338.187 386.136 337.472C385.68 337.273 385.211 337.103 384.734 336.962C383.737 336.675 382.703 336.532 381.665 336.537V336.654Z" fill="#263238"/>
<path d="M401.912 337.599C403.252 337.555 404.588 337.782 405.839 338.265C407.09 338.747 408.232 339.477 409.196 340.41C410.159 341.342 410.926 342.459 411.449 343.694C411.972 344.929 412.242 346.257 412.242 347.598C412.242 348.939 411.972 350.267 411.449 351.501C410.926 352.736 410.159 353.853 409.196 354.786C408.232 355.719 407.09 356.448 405.839 356.931C404.588 357.414 403.252 357.64 401.912 357.597H390.814C389.869 357.602 388.928 357.469 388.021 357.204C386.062 356.625 384.323 355.471 383.03 353.89C382.786 353.591 382.562 353.275 382.36 352.945C381.414 351.464 380.878 349.759 380.807 348.003C380.736 346.247 381.133 344.504 381.957 342.952C382.669 342.998 383.361 343.201 383.985 343.546C383.25 344.772 382.86 346.174 382.86 347.603C382.85 349.465 383.514 351.268 384.729 352.68C384.986 353 385.27 353.299 385.578 353.572C386.893 354.72 388.551 355.4 390.294 355.504C390.463 355.514 390.634 355.514 390.803 355.504H401.891C402.956 355.543 404.019 355.367 405.014 354.986C406.01 354.606 406.919 354.028 407.687 353.288C408.455 352.548 409.065 351.661 409.482 350.679C409.899 349.698 410.114 348.643 410.114 347.577C410.114 346.51 409.899 345.455 409.482 344.474C409.065 343.493 408.455 342.605 407.687 341.865C406.919 341.125 406.01 340.548 405.014 340.167C404.019 339.786 402.956 339.61 401.891 339.649H392.088L391.897 339.405C391.369 338.744 390.775 338.139 390.124 337.599C390.347 337.599 390.57 337.599 390.803 337.599H401.891H401.912ZM401.891 336.537H390.814C389.672 336.534 388.536 336.709 387.447 337.058C388.843 337.821 390.077 338.849 391.079 340.084C391.249 340.297 391.409 340.509 391.557 340.732H401.901C402.826 340.696 403.748 340.846 404.613 341.175C405.477 341.504 406.267 342.004 406.934 342.645C407.6 343.286 408.131 344.055 408.493 344.906C408.856 345.757 409.043 346.673 409.043 347.598C409.043 348.523 408.856 349.438 408.493 350.29C408.131 351.141 407.6 351.91 406.934 352.551C406.267 353.192 405.477 353.692 404.613 354.021C403.748 354.349 402.826 354.5 401.901 354.464H390.814C390.68 354.475 390.545 354.475 390.41 354.464C388.886 354.387 387.434 353.796 386.29 352.786C386.023 352.561 385.781 352.308 385.568 352.032C384.507 350.809 383.925 349.243 383.932 347.624C383.928 346.057 384.469 344.537 385.461 343.323C384.503 342.471 383.281 341.973 381.999 341.911H381.362C380.278 343.67 379.712 345.7 379.731 347.767C379.75 349.834 380.352 351.853 381.468 353.593C381.685 353.965 381.93 354.32 382.201 354.655C383.312 356.032 384.736 357.124 386.354 357.841C386.803 358.036 387.264 358.202 387.734 358.34C388.734 358.637 389.771 358.783 390.814 358.775H401.901C403.383 358.821 404.858 358.569 406.24 358.034C407.622 357.499 408.883 356.691 409.947 355.66C411.011 354.628 411.857 353.393 412.435 352.029C413.012 350.664 413.31 349.197 413.31 347.715C413.31 346.233 413.012 344.766 412.435 343.401C411.857 342.036 411.011 340.801 409.947 339.77C408.883 338.738 407.622 337.931 406.24 337.395C404.858 336.86 403.383 336.608 401.901 336.654L401.891 336.537Z" fill="#263238"/>
<path d="M458.491 53.4609H103.305V318.706H458.491V53.4609Z" fill="#999999"/>
<path d="M459.021 319.237H102.773V52.9297H459.021V319.237ZM103.835 318.175H457.959V53.9917H103.835V318.175Z" fill="#263238"/>
<path d="M454.72 72.5557H107.117V314.808H454.72V72.5557Z" fill="white"/>
<path d="M458.381 53.4609H103.195V68.382H458.381V53.4609Z" fill="#263238"/>
<path d="M116.269 65.2489C118.732 65.2489 120.729 63.2519 120.729 60.7885C120.729 58.3251 118.732 56.3281 116.269 56.3281C113.806 56.3281 111.809 58.3251 111.809 60.7885C111.809 63.2519 113.806 65.2489 116.269 65.2489Z" fill="white"/>
<path d="M129.949 65.2489C132.412 65.2489 134.409 63.2519 134.409 60.7885C134.409 58.3251 132.412 56.3281 129.949 56.3281C127.485 56.3281 125.488 58.3251 125.488 60.7885C125.488 63.2519 127.485 65.2489 129.949 65.2489Z" fill="white"/>
<path d="M148.098 60.7885C148.1 61.6737 147.84 62.5396 147.349 63.2765C146.859 64.0134 146.161 64.5881 145.343 64.9278C144.526 65.2675 143.626 65.3569 142.758 65.1848C141.889 65.0126 141.092 64.5866 140.466 63.9606C139.84 63.3347 139.414 62.5371 139.242 61.6688C139.069 60.8005 139.159 59.9007 139.499 59.0833C139.838 58.2659 140.413 57.5677 141.15 57.0772C141.887 56.5867 142.753 56.326 143.638 56.3281C144.821 56.3281 145.955 56.7981 146.792 57.6346C147.628 58.471 148.098 59.6056 148.098 60.7885Z" fill="white"/>
<path d="M321.937 212.612H244.188C237.912 212.612 232.824 217.7 232.824 223.976V240.469C232.824 246.744 237.912 251.832 244.188 251.832H321.937C328.212 251.832 333.3 246.744 333.3 240.469V223.976C333.3 217.7 328.212 212.612 321.937 212.612Z" fill="#2F80ED"/>
<path d="M321.94 252.363H244.191C241.038 252.36 238.014 251.106 235.784 248.876C233.554 246.646 232.3 243.622 232.297 240.468V223.975C232.3 220.822 233.554 217.798 235.784 215.568C238.014 213.338 241.038 212.084 244.191 212.081H321.94C325.094 212.084 328.118 213.338 330.348 215.568C332.578 217.798 333.832 220.822 333.835 223.975V240.468C333.832 243.622 332.578 246.646 330.348 248.876C328.118 251.106 325.094 252.36 321.94 252.363ZM244.191 213.143C241.318 213.143 238.563 214.284 236.532 216.316C234.5 218.347 233.359 221.103 233.359 223.975V240.468C233.359 243.341 234.5 246.096 236.532 248.128C238.563 250.159 241.318 251.301 244.191 251.301H321.94C324.813 251.301 327.568 250.159 329.6 248.128C331.631 246.096 332.773 243.341 332.773 240.468V223.975C332.773 221.103 331.631 218.347 329.6 216.316C327.568 214.284 324.813 213.143 321.94 213.143H244.191Z" fill="#2F80ED"/>
<path d="M324.083 255.74H242.808C242.668 255.74 242.532 255.684 242.433 255.585C242.333 255.485 242.277 255.35 242.277 255.209C242.277 255.069 242.333 254.933 242.433 254.834C242.532 254.734 242.668 254.678 242.808 254.678H324.083C327.307 254.676 330.399 253.394 332.678 251.114C334.958 248.834 336.24 245.743 336.243 242.518V223.349C336.243 223.209 336.299 223.073 336.399 222.974C336.498 222.874 336.633 222.818 336.774 222.818C336.915 222.818 337.05 222.874 337.15 222.974C337.249 223.073 337.305 223.209 337.305 223.349V242.518C337.302 246.024 335.908 249.386 333.429 251.865C330.95 254.344 327.589 255.738 324.083 255.74Z" fill="#263238"/>
<path d="M262.741 234.818C262.799 235.588 262.555 236.349 262.062 236.942C261.514 237.415 260.815 237.675 260.092 237.675C259.368 237.675 258.669 237.415 258.122 236.942C257.628 236.349 257.384 235.588 257.442 234.818V228.935C257.384 228.166 257.628 227.404 258.122 226.811C258.666 226.332 259.366 226.068 260.092 226.068C260.817 226.068 261.517 226.332 262.062 226.811C262.555 227.404 262.799 228.166 262.741 228.935V229.997H261.063V228.786C261.063 228.043 260.755 227.671 260.139 227.671C259.523 227.671 259.215 228.043 259.215 228.786V234.903C259.215 235.636 259.523 235.965 260.139 235.965C260.755 235.965 261.063 235.604 261.063 234.903V233.279H262.741V234.818Z" fill="white"/>
<path d="M265.612 226.206V235.913H268.543V237.527H263.828V226.206H265.612Z" fill="white"/>
<path d="M271.09 226.205V237.526H269.316V226.205H271.09Z" fill="white"/>
<path d="M277.55 234.818C277.607 235.588 277.364 236.349 276.87 236.942C276.323 237.415 275.623 237.675 274.9 237.675C274.177 237.675 273.478 237.415 272.93 236.942C272.437 236.349 272.193 235.588 272.25 234.818V228.935C272.193 228.166 272.437 227.404 272.93 226.811C273.475 226.332 274.175 226.068 274.9 226.068C275.625 226.068 276.326 226.332 276.87 226.811C277.364 227.404 277.607 228.166 277.55 228.935V229.997H275.872V228.786C275.872 228.043 275.564 227.671 274.948 227.671C274.332 227.671 274.024 228.043 274.024 228.786V234.903C274.024 235.636 274.332 235.965 274.948 235.965C275.564 235.965 275.872 235.604 275.872 234.903V233.279H277.55V234.818Z" fill="white"/>
<path d="M280.374 234.065V237.538H278.59V226.206H280.374V231.134L282.7 226.206H284.484L282.009 231.251L284.484 237.527H282.657L280.926 233.013L280.374 234.065Z" fill="white"/>
<path d="M287.805 237.537V226.205H289.589V231.058H291.607V226.205H293.423V237.526H291.607V232.683H289.589V237.537H287.805Z" fill="white"/>
<path d="M298.977 230.985V232.578H296.524V235.902H299.603V237.516H294.75V226.206H299.603V227.82H296.524V231.006L298.977 230.985Z" fill="white"/>
<path d="M304.3 237.017C304.284 236.727 304.284 236.436 304.3 236.146V234.373C304.333 233.981 304.236 233.589 304.024 233.258C303.911 233.137 303.771 233.045 303.617 232.988C303.462 232.931 303.296 232.91 303.132 232.929H302.516V237.538H300.742V226.206H303.418C303.776 226.144 304.143 226.169 304.489 226.277C304.835 226.385 305.15 226.574 305.408 226.829C305.667 227.083 305.861 227.395 305.975 227.739C306.088 228.083 306.119 228.45 306.063 228.808V229.7C306.123 230.156 306.043 230.619 305.835 231.028C305.626 231.438 305.298 231.775 304.895 231.994C305.096 232.072 305.279 232.189 305.434 232.338C305.589 232.488 305.713 232.667 305.797 232.865C306.001 233.352 306.095 233.877 306.073 234.405V236.157C306.06 236.419 306.06 236.681 306.073 236.943C306.095 237.146 306.153 237.344 306.243 237.527H304.427C304.367 237.362 304.324 237.191 304.3 237.017ZM302.484 231.314H303.185C303.329 231.325 303.475 231.306 303.612 231.259C303.749 231.211 303.874 231.136 303.981 231.038C304.183 230.775 304.278 230.445 304.247 230.114V228.999C304.272 228.687 304.197 228.375 304.034 228.107C303.948 228.012 303.841 227.937 303.721 227.89C303.601 227.842 303.473 227.822 303.344 227.831H302.484V231.314Z" fill="white"/>
<path d="M311.435 230.984V232.577H309.046V235.901H312.115V237.515H307.262V226.205H312.115V227.819H309.046V231.005L311.435 230.984Z" fill="white"/>
<path d="M391.126 125.263H233.887V140.216H391.126V125.263Z" fill="#999999"/>
<path d="M338.388 149.562H233.887V164.514H338.388V149.562Z" fill="#999999"/>
<path d="M338.388 177.066H233.887V178.128H338.388V177.066Z" fill="#263238"/>
<path d="M348.147 186.571H233.887V187.633H348.147V186.571Z" fill="#263238"/>
<path d="M357.896 196.076H233.887V197.138H357.896V196.076Z" fill="#263238"/>
<path d="M447.202 79.9258H427.449V80.9878H447.202V79.9258Z" fill="#263238"/>
<path d="M447.202 85.2783H427.449V86.3403H447.202V85.2783Z" fill="#263238"/>
<path d="M447.202 90.6416H427.449V91.7036H447.202V90.6416Z" fill="#263238"/>
<path d="M179.643 79.8301H147.082V85.8092H179.643V79.8301Z" fill="#999999"/>
<path d="M222.748 79.8301H190.188V85.8092H222.748V79.8301Z" fill="#999999"/>
<path d="M265.842 79.8301H233.281V85.8092H265.842V79.8301Z" fill="#999999"/>
<path d="M308.952 79.8301H276.391V85.8092H308.952V79.8301Z" fill="#999999"/>
<path d="M137.36 79.8311H113.613V103.577H137.36V79.8311Z" fill="white"/>
<path d="M137.362 104.075H113.636C113.496 104.075 113.361 104.019 113.261 103.92C113.161 103.82 113.105 103.685 113.105 103.544V79.8298C113.105 79.689 113.161 79.5539 113.261 79.4544C113.361 79.3548 113.496 79.2988 113.636 79.2988H137.383C137.524 79.2988 137.659 79.3548 137.758 79.4544C137.858 79.5539 137.914 79.689 137.914 79.8298V103.576C137.906 103.715 137.843 103.845 137.74 103.939C137.636 104.032 137.501 104.081 137.362 104.075ZM114.146 103.013H136.831V80.3608H114.146V103.013Z" fill="#263238"/>
<path d="M250.267 243.931C250.058 243.932 249.852 243.871 249.677 243.756C249.502 243.641 249.365 243.476 249.283 243.283C249.202 243.09 249.179 242.877 249.218 242.671C249.257 242.465 249.356 242.275 249.503 242.126L252.572 238.94C252.771 238.742 253.04 238.631 253.321 238.631C253.601 238.631 253.87 238.742 254.069 238.94C254.169 239.038 254.248 239.156 254.302 239.285C254.356 239.415 254.384 239.554 254.384 239.694C254.384 239.834 254.356 239.973 254.302 240.102C254.248 240.232 254.169 240.349 254.069 240.448L251 243.581C250.812 243.79 250.549 243.916 250.267 243.931Z" fill="white"/>
<path d="M245.394 242.062C245.112 242.062 244.842 241.951 244.643 241.751C244.444 241.552 244.332 241.282 244.332 241L244.385 236.752C244.385 236.471 244.497 236.201 244.696 236.001C244.895 235.802 245.165 235.69 245.447 235.69C245.729 235.69 245.999 235.802 246.198 236.001C246.397 236.201 246.509 236.471 246.509 236.752L246.456 241C246.456 241.282 246.344 241.552 246.145 241.751C245.946 241.951 245.676 242.062 245.394 242.062Z" fill="white"/>
<path d="M240.455 244.26C240.182 244.259 239.919 244.153 239.722 243.963L236.749 241.064C236.546 240.866 236.43 240.597 236.426 240.314C236.422 240.031 236.53 239.758 236.728 239.555C236.925 239.353 237.194 239.237 237.477 239.233C237.76 239.229 238.033 239.337 238.236 239.534L241.199 242.444C241.396 242.643 241.507 242.912 241.507 243.193C241.507 243.473 241.396 243.743 241.199 243.942C241.003 244.142 240.735 244.256 240.455 244.26Z" fill="white"/>
<path d="M252.234 248.753C251.952 248.753 251.682 248.641 251.483 248.442C251.284 248.243 251.172 247.972 251.172 247.691C251.172 247.409 251.284 247.139 251.483 246.94C251.682 246.741 251.952 246.629 252.234 246.629L256.482 246.48C256.764 246.47 257.038 246.573 257.244 246.765C257.45 246.957 257.571 247.223 257.581 247.505C257.591 247.787 257.488 248.061 257.296 248.267C257.104 248.473 256.838 248.594 256.556 248.604L252.308 248.763L252.234 248.753Z" fill="white"/>
<path d="M146.649 223.435C147.983 233.225 147.004 243.19 143.792 252.534C143.006 254.817 141.668 257.398 139.289 257.727C139.417 261.03 135.795 264.832 132.514 265.288C130.825 265.533 129.424 267.742 128.266 268.995C127.168 270.247 125.681 271.094 124.044 271.401C122.407 271.707 120.715 271.455 119.238 270.685C117.762 269.915 116.587 268.671 115.901 267.154C115.216 265.636 115.06 263.932 115.458 262.315C116.199 259.358 117.721 256.654 119.866 254.488C124.039 249.783 126.737 242.296 129.126 236.434C129.954 236.582 130.464 221.056 130.995 214.727C133.119 213.293 141.987 214.376 144.153 215.789C146.32 217.201 146.309 220.897 146.649 223.435Z" fill="#263238"/>
<path d="M97.3847 261.783C96.9812 262.845 96.1103 264.098 93.4766 264.534C98.7866 272.106 113.909 278.839 124.742 277.469C130.732 276.407 130.87 274.803 129.213 273.37C125.942 270.555 123.298 264.587 123.191 260.275L123.096 255.815L99.0521 243.283C99.0521 243.283 97.852 256.027 97.8095 259.532C97.8073 260.302 97.6633 261.065 97.3847 261.783Z" fill="#966653"/>
<path d="M121.83 278.181C111.423 278.181 98.19 272.223 93.0393 264.842L92.5508 264.152L93.3791 264.014C95.8005 263.61 96.5651 262.506 96.8944 261.592C97.1462 260.931 97.2758 260.229 97.2767 259.521C97.2767 255.996 98.4661 243.761 98.5192 243.241L98.5936 242.455L123.614 255.496L123.72 260.254C123.827 264.502 126.492 270.333 129.551 272.998C130.443 273.763 130.793 274.527 130.613 275.271C130.273 276.503 128.489 277.395 124.857 278.021C123.852 278.135 122.841 278.189 121.83 278.181ZM94.388 264.884C100.144 272.318 114.81 278.191 124.676 276.949C128.807 276.205 129.477 275.313 129.572 274.963C129.668 274.612 129.243 274.103 128.861 273.773C125.547 270.927 122.765 264.874 122.658 260.286L122.563 256.144L99.5069 244.122C99.2414 246.947 98.3812 256.558 98.3387 259.532C98.3399 260.371 98.185 261.203 97.882 261.985C97.5833 262.719 97.1081 263.367 96.4986 263.873C95.889 264.379 95.1641 264.726 94.388 264.884Z" fill="#263238"/>
<path opacity="0.3" d="M96.3303 258.842C96.1285 260.381 95.6931 262.208 94.2063 262.75C93.4841 263.015 92.5496 262.973 92.1354 263.621C91.7212 264.268 92.3053 265.267 92.9106 265.893C95.8498 269.186 99.1163 272.172 102.66 274.803C106.234 277.441 110.528 278.923 114.968 279.051C113.352 275.27 113.103 271.044 114.266 267.099C115.429 263.155 117.931 259.739 121.34 257.44C123.018 256.378 125.195 255.008 124.792 253.064C124.495 251.662 122.986 250.94 121.606 250.43L110.742 246.236C107.386 244.929 103.478 242.625 99.9305 242.051C96.6807 241.52 97.5834 245.577 97.3923 247.988C97.1799 251.62 96.8082 255.231 96.3303 258.842Z" fill="black"/>
<path d="M114.429 257.863C116.861 258.628 123.201 260.529 123.201 260.529L123.094 255.814L99.0508 243.282C100.208 250.876 107.111 255.538 114.429 257.863Z" fill="#263238"/>
<path d="M123.19 261.061C123.141 261.07 123.09 261.07 123.041 261.061C123.041 261.061 116.669 259.16 114.258 258.384C108.948 256.717 99.9109 252.543 98.509 243.389C98.4954 243.292 98.5091 243.192 98.5484 243.102C98.5878 243.012 98.6514 242.935 98.7321 242.879C98.8148 242.827 98.9105 242.8 99.0082 242.8C99.1058 242.8 99.2015 242.827 99.2843 242.879L123.328 255.411C123.411 255.455 123.482 255.521 123.532 255.601C123.583 255.681 123.611 255.773 123.615 255.867L123.721 260.583C123.726 260.666 123.71 260.75 123.674 260.826C123.639 260.902 123.586 260.968 123.519 261.018C123.417 261.067 123.301 261.082 123.19 261.061ZM99.8259 244.26C101.653 252.108 109.809 255.814 114.694 257.344C116.627 257.96 121.066 259.287 122.765 259.807L122.67 256.133L99.8259 244.26Z" fill="#263238"/>
<path d="M105.781 189.96C98.5173 194.644 92.4002 199.518 89.7027 214.8C87.0052 230.083 93.4515 240.469 93.4515 240.469C94.9819 243.051 96.7988 245.452 98.8677 247.627C102.999 252.247 120.957 258.183 126.204 257.833C131.45 257.482 138.257 248.455 140.838 235.531C143.419 222.606 140.912 219.601 137.248 203.012C133.585 186.424 124.611 184.788 124.611 184.788C124.611 184.788 115.754 183.546 105.781 189.96Z" fill="#966653"/>
<path opacity="0.3" d="M89.6289 214.822C86.9421 230.051 93.3247 240.48 93.3247 240.48C94.855 243.062 96.6719 245.463 98.7409 247.637C102.872 252.257 120.894 258.183 126.087 257.843C127.946 257.716 130.017 256.473 132.035 254.339C128.383 254.961 124.64 254.784 121.064 253.818C112.749 251.546 103.509 243.198 101.035 229.891C98.9958 219.144 95.2575 206.389 93.8769 201.78C91.7709 205.872 90.3366 210.275 89.6289 214.822Z" fill="black"/>
<path d="M125.709 258.374C119.836 258.374 102.621 252.671 98.4265 247.988C96.3344 245.783 94.4962 243.35 92.9465 240.735C92.8828 240.639 86.4896 229.966 89.1871 214.716C91.8845 199.465 98.1822 194.23 105.499 189.514C115.472 183.057 124.318 184.257 124.69 184.311C125.061 184.364 134.014 186.18 137.72 202.885C138.549 206.655 139.324 209.703 140.004 212.379C142.276 221.406 143.328 225.527 141.31 235.626C138.559 249.432 131.465 258.013 126.198 258.364L125.709 258.374ZM122.651 185.266C116.747 185.363 110.995 187.146 106.073 190.406C98.7132 195.154 92.8722 199.964 90.2278 214.896C87.5834 229.828 93.7961 240.087 93.8492 240.193C95.352 242.74 97.1329 245.112 99.1592 247.266C103.248 251.822 121.026 257.642 126.081 257.302C130.849 256.994 137.614 248.53 140.227 235.414C142.191 225.559 141.172 221.512 138.931 212.645C138.251 209.947 137.476 206.899 136.637 203.087C133.08 187.072 124.562 185.351 124.477 185.341C123.871 185.274 123.261 185.249 122.651 185.266Z" fill="#263238"/>
<path d="M129.562 175.974C135.627 178.489 141.262 181.932 146.268 186.18C146.509 186.378 146.697 186.633 146.814 186.923C146.93 187.213 146.972 187.527 146.935 187.837C146.898 188.147 146.783 188.443 146.602 188.697C146.42 188.951 146.177 189.156 145.896 189.291C144.241 190.013 142.38 190.107 140.66 189.557C149.424 196.142 156.834 204.356 162.484 213.749C162.717 214.132 162.841 214.572 162.842 215.021C162.843 215.469 162.722 215.909 162.491 216.294C162.261 216.679 161.93 216.993 161.533 217.203C161.137 217.414 160.691 217.512 160.244 217.487C159.107 217.396 157.994 217.112 156.951 216.648C161.199 220.195 163.536 223.073 162.261 224.9C160.552 225.219 158.396 220.928 156.813 220.28C159.62 224.597 161.27 229.564 161.603 234.702C161.645 235.335 161.498 235.966 161.18 236.514C160.861 237.062 160.387 237.503 159.817 237.78C159.247 238.057 158.607 238.158 157.979 238.069C157.351 237.981 156.764 237.707 156.293 237.283L156.017 237.049L156.728 244.664C156.785 245.213 156.633 245.764 156.303 246.207C155.973 246.65 155.489 246.954 154.947 247.058C154.404 247.162 153.842 247.059 153.372 246.769C152.902 246.479 152.557 246.024 152.406 245.492C152.375 245.41 152.353 245.325 152.342 245.237C153.404 247.595 154.466 250.08 153.819 252.671C153.655 253.517 153.238 254.292 152.624 254.895C152.009 255.498 151.226 255.901 150.378 256.049C147.595 256.42 145.673 253.563 144.579 251.036C144.579 251.036 146.055 215.905 128.819 193.359C119.144 180.71 114.535 179.117 114.535 179.117C114.694 172.044 126.111 174.529 129.562 175.974Z" fill="#263238"/>
<path d="M120.493 177.609C115.799 174.689 109.405 172.299 104.265 170.334C93.3905 166.086 80.2217 167.626 71.1841 175.135C70.9171 175.357 70.7166 175.649 70.6046 175.978C70.4926 176.306 70.4734 176.66 70.5491 176.999C70.6248 177.338 70.7925 177.65 71.0338 177.9C71.2751 178.15 71.5807 178.329 71.9169 178.416L74.8161 179.181C70.5254 179.866 66.572 181.923 63.5483 185.043C63.2442 185.361 63.0522 185.77 63.0018 186.207C62.9513 186.644 63.0451 187.085 63.2688 187.464C63.4924 187.843 63.8338 188.138 64.2409 188.305C64.6479 188.472 65.0984 188.501 65.5236 188.388C56.9934 193.496 50.7223 201.654 47.9794 211.211C47.7776 211.879 47.7864 212.593 48.0046 213.256C48.2228 213.919 48.6398 214.499 49.199 214.916C49.7582 215.334 50.4324 215.569 51.13 215.59C51.8277 215.611 52.5149 215.417 53.0982 215.034C54.4149 214.177 55.6236 213.164 56.6984 212.018C52.9504 217.004 50.0478 222.572 48.1068 228.5C47.6077 230.019 47.2041 231.814 48.4892 233.024C48.9466 233.423 49.5085 233.683 50.1087 233.773C50.7089 233.864 51.3223 233.781 51.8769 233.534C53.916 232.716 54.9355 230.73 55.8488 228.851C54.6714 231.751 54.0413 234.844 53.9903 237.973C53.9819 238.31 54.081 238.64 54.2735 238.917C54.4659 239.193 54.7415 239.401 55.0601 239.51C55.3788 239.619 55.7239 239.624 56.0453 239.523C56.3667 239.422 56.6476 239.222 56.8471 238.95L58.0896 237.251C56.7889 240.325 56.2926 243.679 56.6475 246.997C57.0024 250.316 58.1968 253.489 60.118 256.218C60.2711 256.436 60.4765 256.613 60.7153 256.731C60.9542 256.849 61.2188 256.906 61.4851 256.895C61.7514 256.884 62.0108 256.807 62.2395 256.67C62.4682 256.534 62.659 256.342 62.7943 256.112L66.1077 250.356C65.1201 252.756 64.1324 255.539 65.3112 257.854C66.3732 259.978 70.0265 260.211 70.8974 258.353C70.6637 260.265 72.9258 262.123 74.9967 261.911C77.3225 261.688 79.1597 259.914 80.7846 258.247C92.6577 266.743 98.8386 265.044 100.219 252.363C100.591 248.997 97.6916 247.913 93.3905 240.469C93.3905 240.469 88.3354 230.72 91.0116 225.176C92.0048 226.374 92.8269 227.703 93.4542 229.127L97.0969 234.766C97.0969 234.766 95.9499 233.969 96.6721 227.619C97.3838 222.485 98.5097 217.416 100.039 212.464C108.227 185.861 134.479 196.704 134.023 199.932C134.033 199.932 130.73 183.981 120.493 177.609Z" fill="#263238"/>
<path d="M127.981 244.728C126.391 244.773 124.837 244.254 123.595 243.262C123.545 243.213 123.505 243.154 123.478 243.089C123.451 243.024 123.438 242.955 123.438 242.885C123.438 242.815 123.451 242.745 123.478 242.681C123.505 242.616 123.545 242.557 123.595 242.508C123.694 242.411 123.827 242.356 123.966 242.356C124.105 242.356 124.239 242.411 124.338 242.508C125.143 243.096 126.078 243.481 127.064 243.629C128.049 243.777 129.056 243.684 129.998 243.358C130.421 243.227 130.797 242.975 131.078 242.634C131.359 242.292 131.534 241.875 131.581 241.435C131.509 241.047 131.307 240.695 131.007 240.437C130.947 240.404 130.88 240.386 130.811 240.386C130.742 240.386 130.674 240.404 130.614 240.437C130.482 240.486 130.335 240.481 130.207 240.422C130.079 240.364 129.979 240.256 129.929 240.124C129.88 239.991 129.885 239.845 129.944 239.716C130.003 239.588 130.11 239.488 130.243 239.439C130.448 239.351 130.67 239.311 130.893 239.322C131.115 239.333 131.332 239.395 131.528 239.503C132.099 239.942 132.48 240.585 132.59 241.297C132.595 241.343 132.595 241.389 132.59 241.435C132.546 242.088 132.308 242.713 131.907 243.229C131.506 243.746 130.96 244.131 130.338 244.335C129.584 244.611 128.784 244.745 127.981 244.728Z" fill="#263238"/>
<path d="M125.317 241.075C124.584 241.075 123.851 241.075 123.193 241.011C123.052 241.004 122.92 240.941 122.825 240.837C122.73 240.732 122.681 240.594 122.688 240.453C122.695 240.312 122.758 240.18 122.862 240.086C122.967 239.991 123.105 239.942 123.246 239.949C125.89 240.098 128.874 240.087 130.956 239.014C131.135 238.882 131.275 238.703 131.359 238.497C131.443 238.291 131.469 238.066 131.434 237.846C131.361 237.672 131.234 237.525 131.071 237.43C130.908 237.334 130.719 237.294 130.531 237.315C130.39 237.339 130.246 237.306 130.129 237.223C130.013 237.141 129.934 237.015 129.91 236.874C129.886 236.734 129.919 236.589 130.001 236.472C130.084 236.356 130.21 236.277 130.35 236.253C130.79 236.175 131.243 236.253 131.631 236.474C132.019 236.696 132.318 237.046 132.474 237.464C132.599 237.929 132.569 238.421 132.389 238.868C132.209 239.314 131.888 239.69 131.476 239.938C129.541 240.798 127.431 241.187 125.317 241.075Z" fill="#263238"/>
<path d="M126.696 233.746C126.262 233.77 125.828 233.699 125.425 233.537C125.021 233.376 124.658 233.128 124.36 232.812C124.277 232.699 124.241 232.559 124.258 232.421C124.276 232.282 124.347 232.156 124.455 232.068C124.566 231.981 124.705 231.942 124.845 231.958C124.984 231.973 125.111 232.044 125.199 232.153C125.263 232.228 126.452 233.555 129.712 231.686C130.086 231.517 130.416 231.266 130.679 230.951C130.942 230.637 131.13 230.267 131.231 229.87C131.592 228.043 129.649 225.622 127.949 223.381C127.146 222.313 126.601 221.074 126.356 219.761C126.111 218.447 126.173 217.095 126.537 215.809C126.556 215.739 126.588 215.674 126.632 215.617C126.676 215.559 126.731 215.512 126.794 215.476C126.857 215.44 126.926 215.416 126.997 215.407C127.069 215.398 127.142 215.403 127.211 215.421C127.281 215.44 127.346 215.473 127.404 215.517C127.461 215.561 127.509 215.616 127.545 215.678C127.581 215.741 127.604 215.81 127.613 215.882C127.623 215.953 127.618 216.026 127.599 216.096C127.283 217.223 127.229 218.407 127.443 219.558C127.656 220.709 128.131 221.795 128.831 222.733C130.668 225.091 132.76 227.778 132.314 230.072C132.185 230.619 131.937 231.13 131.586 231.569C131.235 232.008 130.791 232.364 130.286 232.61C129.209 233.295 127.971 233.687 126.696 233.746Z" fill="#263238"/>
<path d="M113.227 220.822C114.044 220.694 114.905 221.884 115.149 223.487C115.393 225.091 114.926 226.482 114.087 226.599C113.248 226.716 112.409 225.537 112.165 223.934C111.92 222.33 112.409 220.896 113.227 220.822Z" fill="#263238"/>
<path d="M132.642 219.696C132.886 221.3 132.419 222.691 131.58 222.819C130.741 222.946 129.891 221.757 129.647 220.153C129.402 218.549 129.87 217.158 130.709 217.031C131.548 216.903 132.397 218.103 132.642 219.696Z" fill="#263238"/>
<path d="M107.082 219.102H106.944C106.809 219.064 106.695 218.975 106.625 218.854C106.556 218.733 106.537 218.589 106.572 218.454C106.753 217.685 107.099 216.964 107.584 216.341C108.07 215.717 108.685 215.206 109.387 214.843C113.709 212.517 121.069 214.949 121.334 215.056C121.401 215.078 121.462 215.114 121.515 215.16C121.567 215.207 121.61 215.263 121.641 215.327C121.671 215.39 121.689 215.459 121.693 215.529C121.697 215.599 121.687 215.669 121.663 215.735C121.642 215.801 121.607 215.862 121.562 215.915C121.516 215.967 121.461 216.01 121.398 216.041C121.336 216.072 121.268 216.09 121.199 216.094C121.129 216.098 121.06 216.088 120.994 216.064C120.92 216.064 113.794 213.675 109.896 215.778C109.327 216.07 108.828 216.483 108.434 216.987C108.039 217.491 107.759 218.075 107.613 218.698C107.584 218.816 107.516 218.92 107.419 218.994C107.322 219.067 107.203 219.105 107.082 219.102Z" fill="#263238"/>
<path d="M128.151 214.854C128.028 214.852 127.909 214.811 127.811 214.737C127.702 214.646 127.634 214.516 127.62 214.375C127.606 214.234 127.648 214.093 127.736 213.983C129.659 211.604 131.591 210.383 133.471 210.361C134.049 210.365 134.621 210.486 135.15 210.718C135.68 210.95 136.156 211.288 136.551 211.71C136.597 211.763 136.631 211.824 136.653 211.89C136.674 211.956 136.682 212.026 136.676 212.095C136.67 212.165 136.65 212.232 136.618 212.293C136.586 212.355 136.541 212.409 136.487 212.453C136.435 212.499 136.374 212.534 136.307 212.555C136.241 212.577 136.171 212.585 136.102 212.579C136.033 212.573 135.965 212.553 135.904 212.52C135.842 212.488 135.788 212.444 135.744 212.39C135.442 212.079 135.08 211.833 134.681 211.667C134.281 211.501 133.851 211.418 133.418 211.423C131.899 211.423 130.232 212.57 128.522 214.609C128.482 214.675 128.428 214.731 128.364 214.773C128.3 214.815 128.227 214.843 128.151 214.854Z" fill="#263238"/>
<path d="M95.1767 238.833C95.1767 238.833 91.6934 241.414 88.1144 237.399C84.5355 233.385 81.8911 226.482 85.9904 223.795C90.0897 221.108 94.3484 230.73 94.3484 230.73L95.1767 238.833Z" fill="#966653"/>
<path opacity="0.3" d="M95.1767 238.833C95.1767 238.833 91.6934 241.414 88.1144 237.399C84.5355 233.385 81.8911 226.482 85.9904 223.795C90.0897 221.108 94.3484 230.73 94.3484 230.73" fill="black"/>
<path d="M92.4457 240.172C91.5284 240.14 90.6294 239.907 89.8125 239.488C88.9957 239.07 88.2811 238.477 87.7198 237.75C85.2453 234.979 82.9726 230.593 83.4718 227.056C83.5504 226.305 83.7976 225.582 84.1948 224.94C84.592 224.299 85.129 223.755 85.7657 223.35C86.169 223.072 86.6307 222.892 87.1151 222.822C87.5995 222.752 88.0935 222.794 88.5587 222.946C91.9996 224.008 94.7821 230.253 94.9307 230.518C94.9885 230.648 94.9924 230.795 94.9416 230.927C94.8908 231.06 94.7895 231.167 94.6599 231.224C94.5304 231.282 94.3832 231.286 94.2507 231.235C94.1183 231.185 94.0114 231.083 93.9537 230.954C93.9537 230.89 91.2562 224.858 88.2826 223.966C87.9648 223.857 87.6259 223.826 87.2936 223.874C86.9613 223.922 86.6452 224.048 86.371 224.242C85.8651 224.567 85.4392 225.003 85.1248 225.516C84.8104 226.029 84.6156 226.606 84.555 227.205C84.1196 230.391 86.3179 234.543 88.5587 237.05C91.7447 240.639 94.7714 238.494 94.9307 238.398C95.0456 238.318 95.1874 238.285 95.326 238.306C95.4647 238.328 95.5895 238.403 95.6741 238.515C95.7586 238.628 95.7949 238.769 95.775 238.909C95.7551 239.048 95.6806 239.174 95.5679 239.258C94.6384 239.861 93.5532 240.178 92.4457 240.172Z" fill="#263238"/>
<path d="M142.36 281.94C124.922 276.535 104.606 270.417 92.5625 264.077C92.5625 264.077 95.0901 257.419 97.4265 256.367C97.4265 256.367 103.172 256.165 112.454 259.819C124.784 264.683 141.988 281.229 142.36 281.94Z" fill="white"/>
<path d="M142.359 282.492H142.2L139.152 281.547C122.532 276.407 103.702 270.587 92.307 264.555C92.1931 264.494 92.1055 264.393 92.0605 264.272C92.0155 264.151 92.0163 264.017 92.0628 263.897C92.3283 263.196 94.739 257.004 97.2135 255.9C97.2803 255.889 97.3484 255.889 97.4152 255.9C97.6489 255.9 103.362 255.74 112.644 259.394C125.017 264.268 142.38 280.804 142.837 281.759C142.884 281.853 142.901 281.959 142.888 282.063C142.875 282.167 142.831 282.264 142.763 282.344C142.711 282.397 142.648 282.439 142.578 282.465C142.508 282.49 142.433 282.5 142.359 282.492ZM93.231 263.822C104.573 269.695 123.094 275.43 139.46 280.485L140.596 280.836C136.274 276.588 122.468 264.332 112.251 260.318C103.947 257.047 98.4454 256.898 97.5745 256.898C95.9497 257.737 94.0381 261.826 93.231 263.822Z" fill="#263238"/>
<path d="M112.137 387.948C109.439 391.453 108.006 395.149 105.319 398.653C93.382 393.513 76.921 377.573 63.5717 368.301C52.1976 360.4 56.9979 348.251 56.9979 348.23C57.4652 346.106 74.2979 283.448 75.5192 280.517C78.7052 272.944 84.0152 262.972 91.9589 264.926C115.578 270.682 81.6044 353.348 81.6044 353.348C82.985 354.644 102.558 377.158 112.137 387.948Z" fill="#294872"/>
<path d="M105.317 399.185C105.247 399.201 105.174 399.201 105.104 399.185C97.4897 395.903 88.006 388.236 78.841 380.823C73.5841 376.575 68.1573 372.178 63.2614 368.78C52.0998 361.027 56.008 349.398 56.4859 348.103C57.3461 344.853 73.6797 283.554 75.0284 280.368C78.3525 272.563 83.7368 262.431 92.0841 264.438C93.4971 264.781 94.8153 265.436 95.9419 266.354C97.0685 267.273 97.9748 268.433 98.5942 269.748C108.152 288.503 84.459 347.689 82.2181 353.19C83.7687 354.804 90.2256 362.174 97.6278 370.617C103.023 376.766 108.598 383.128 112.496 387.609C112.574 387.703 112.618 387.821 112.618 387.944C112.618 388.066 112.574 388.184 112.496 388.278C111.246 389.969 110.114 391.743 109.108 393.588C108.087 395.464 106.937 397.266 105.667 398.983C105.625 399.038 105.572 399.085 105.512 399.119C105.452 399.154 105.386 399.176 105.317 399.185ZM89.9814 265.214C83.4182 265.214 78.9153 273.911 76.0054 280.73C74.9434 283.3 58.3125 344.726 57.516 348.336C57.0381 349.653 53.3636 360.571 63.888 367.867C68.8157 371.286 74.2638 375.694 79.5207 379.952C88.4839 387.195 97.7446 394.693 105.168 398.006C106.298 396.419 107.334 394.767 108.269 393.057C109.232 391.302 110.296 389.603 111.455 387.97C107.536 383.563 102.099 377.35 96.8313 371.35C89.2061 362.684 82.0376 354.485 81.2411 353.742C81.161 353.668 81.1049 353.572 81.0803 353.466C81.0557 353.36 81.0636 353.249 81.1031 353.147C81.3685 352.51 107.239 289.098 97.649 270.311C97.1033 269.125 96.2979 268.077 95.2923 267.244C94.2868 266.412 93.1069 265.816 91.8399 265.5C91.2345 265.329 90.6103 265.233 89.9814 265.214Z" fill="#263238"/>
<path opacity="0.3" d="M76.4609 279.158C76.5401 292.129 78.3254 305.034 81.7709 317.539L77.2361 312.059C78.6486 320.077 80.0717 328.201 79.3601 336.304C79.1265 338.747 78.6274 341.317 77.0131 343.154C75.3989 344.992 72.3191 345.767 70.4393 344.216C72.4465 343.866 73.6253 346.701 73.5085 348.74C73.4552 349.241 73.2964 349.724 73.0428 350.158C72.7891 350.592 72.4462 350.968 72.0367 351.26C71.6273 351.552 71.1606 351.754 70.6674 351.852C70.1742 351.951 69.6658 351.943 69.1756 351.831C68.5277 353.116 70.3119 354.337 71.7456 354.295C73.1793 354.252 74.7298 353.7 75.9936 354.454C76.8519 355.223 77.3964 356.282 77.5229 357.428C80.9963 370.635 87.5923 382.815 96.7557 392.941C82.9816 383.383 68.6021 373.273 56.2829 361.792C51.8119 357.608 47.0753 352.181 48.2966 346.181C53.2031 322.297 65.9471 301.152 76.4609 279.158Z" fill="#294872"/>
<path d="M190.243 505.874C183.52 505.672 176.826 504.898 170.235 503.558C141.911 497.664 113.949 477.688 97.6469 443.024C96.0752 439.669 94.6202 436.217 93.2503 432.681C93.2674 432.479 93.2674 432.277 93.2503 432.075C92.8999 422.711 94.2271 413.36 97.1691 404.463L174.982 401.437C175.462 428.97 178.822 456.377 185.007 483.211L190.243 505.874Z" fill="#263238"/>
<path d="M150.228 287.951C161.071 298.571 169.567 317.39 168.186 332.555C166.306 353.105 167.984 340.807 171.085 361.229C175.142 387.949 175.716 419.639 175.716 419.639C147.042 427.254 111.889 422.39 95.6938 407.214C95.1203 380.271 107.28 368.27 96.7558 343.494C90.3838 328.626 79.8913 311.878 77.8947 295.799C76.4291 283.979 75.091 274.814 81.7073 268.623C84.6781 265.965 88.5016 264.459 92.4866 264.375C128.17 262.845 150.228 287.951 150.228 287.951Z" fill="#294872"/>
<path d="M147.895 423.59C126.655 423.59 106.297 417.781 95.3368 407.5C95.2844 407.454 95.2422 407.396 95.213 407.332C95.1837 407.268 95.168 407.199 95.1669 407.129C94.9439 396.721 96.6431 388.374 98.1511 381.004C100.583 369.035 102.696 358.701 96.2714 343.579C94.4553 339.331 92.3207 334.934 90.0693 330.314C84.5256 318.983 78.8015 307.269 77.3253 295.736L77.2085 294.801C75.7854 283.363 74.6703 274.326 81.3078 268.113C84.3642 265.354 88.3106 263.786 92.4269 263.695C127.569 262.325 149.892 286.815 150.571 287.579C162.19 298.975 169.974 318.314 168.679 332.555C167.553 344.821 167.701 345.299 168.679 348.039C169.348 349.982 170.356 352.924 171.588 361.091C175.603 387.535 176.219 419.225 176.229 419.501C176.231 419.619 176.193 419.734 176.122 419.829C176.051 419.923 175.95 419.991 175.836 420.021C166.714 422.404 157.323 423.603 147.895 423.59ZM96.2289 406.884C111.808 421.306 146.345 426.659 175.178 419.14C175.093 415.317 174.318 385.974 170.558 361.25C169.337 353.179 168.349 350.29 167.701 348.389C166.639 345.416 166.523 344.949 167.701 332.459C168.976 318.494 161.329 299.538 149.902 288.323C149.679 288.068 127.6 263.419 92.5544 264.778C88.6953 264.861 84.9942 266.327 82.1255 268.909C75.8703 274.75 76.9642 283.554 78.3554 294.695L78.4722 295.629C79.8316 306.918 85.5239 318.6 91.0251 329.847C93.2871 334.477 95.4218 338.853 97.2484 343.164C103.801 358.585 101.666 369.077 99.1919 381.216C97.6413 388.83 96.0377 396.7 96.2289 406.884Z" fill="#263238"/>
<path opacity="0.3" d="M116.266 294.779C121.207 304.75 125.166 315.179 128.086 325.917L106.846 313.566C113.83 324.514 122.946 333.944 133.651 341.295C132.665 341.664 131.779 342.257 131.062 343.027C130.345 343.798 129.817 344.724 129.519 345.734C129.215 347.553 129.295 349.416 129.753 351.203C132.147 363.392 137.632 374.761 145.683 384.221C139.511 381.492 133.972 377.515 129.413 372.539C122.064 364.712 114.726 356.864 108.396 348.187C107.557 347.04 105.317 345.638 103.925 345.946C105.928 355.871 110.164 365.209 116.311 373.254C122.459 381.298 130.357 387.838 139.407 392.377C136.104 394.204 131.261 395.234 127.958 393.386C124.656 391.538 122.096 388.66 119.6 385.835L107.897 372.571C110.542 389.807 121.905 406.448 137.962 413.245C142.881 415.315 147.159 418.658 150.356 422.931C131.049 426.17 111.062 419.192 95.6948 407.117C95.0257 393.311 100.58 380.514 101.005 362.513C101.281 351.957 92.6468 333.043 86.381 321.542C80.9224 311.537 77.8213 299.473 76.6425 288.142C76.3239 285.03 75.3787 277.66 81.6552 268.505C83.4818 265.925 97.4259 256.367 116.266 294.779Z" fill="black"/>
<path d="M243.199 289.056L242.837 289.29C240.642 290.627 238.839 292.521 237.612 294.78L222.33 286.539C222.776 284.638 224.518 282.599 223.53 280.741C222.304 278.611 221.676 276.189 221.714 273.732C221.767 272.415 221.905 271.087 222.065 269.749C222.418 266.205 222.257 262.628 221.587 259.129C221.422 258.434 221.365 257.718 221.417 257.005C221.558 256.566 221.815 256.174 222.161 255.869C222.507 255.565 222.929 255.359 223.382 255.274C224.89 254.966 226.185 256.41 226.812 257.642C227.286 258.902 227.641 260.203 227.874 261.529C228.415 263.505 228.299 265.968 229.456 267.593C229.67 267.807 229.926 267.973 230.209 268.08C230.491 268.187 230.793 268.233 231.095 268.214C231.396 268.195 231.69 268.111 231.957 267.97C232.224 267.828 232.458 267.631 232.642 267.391C234.522 263.897 242.795 248.106 242.795 248.106C243.188 247.278 243.89 246.638 244.749 246.321C247.531 245.387 249.305 248.36 247.935 250.92L238.951 267.137L243.687 258.449C243.687 258.449 244.749 256.994 246.703 258.449C247.765 259.32 248.307 260.223 247.531 261.635L243.283 269.484L246.947 262.793C247.384 262.485 247.912 262.335 248.445 262.368C248.978 262.401 249.483 262.615 249.878 262.974C250.309 263.301 250.645 263.737 250.852 264.237C251.06 264.737 251.13 265.283 251.057 265.82L247.011 273.339L249.401 268.889C249.831 268.65 250.322 268.54 250.813 268.572C251.304 268.604 251.776 268.777 252.172 269.069C252.727 269.403 253.154 269.912 253.387 270.516C253.62 271.12 253.645 271.784 253.457 272.404C253.383 272.648 248.7 281.282 246.661 285.042C245.86 286.648 244.669 288.028 243.199 289.056Z" fill="#966653"/>
<path d="M237.814 295.491L221.714 286.815L221.809 286.422C221.985 285.752 222.227 285.101 222.531 284.478C223.084 283.215 223.593 282.025 223.052 280.995C221.775 278.783 221.125 276.264 221.172 273.71C221.225 272.541 221.342 271.267 221.533 269.685C221.879 266.182 221.718 262.648 221.055 259.192V259.012C220.882 258.289 220.839 257.541 220.928 256.803C221.093 256.267 221.4 255.787 221.818 255.412C222.235 255.038 222.746 254.785 223.296 254.679C225.08 254.307 226.578 255.868 227.31 257.323C227.693 258.202 227.965 259.127 228.118 260.074C228.213 260.509 228.298 260.923 228.404 261.316C228.586 262.04 228.724 262.774 228.818 263.514C228.892 264.81 229.254 266.073 229.88 267.21C230.032 267.35 230.212 267.455 230.408 267.518C230.605 267.58 230.812 267.598 231.017 267.571C231.22 267.57 231.421 267.523 231.605 267.435C231.788 267.347 231.95 267.22 232.079 267.062C233.937 263.621 242.147 247.946 242.231 247.776C242.683 246.828 243.493 246.098 244.483 245.747C245.089 245.516 245.752 245.475 246.382 245.631C247.012 245.787 247.58 246.131 248.009 246.618C248.496 247.252 248.784 248.017 248.835 248.815C248.886 249.613 248.698 250.409 248.296 251.1L244.918 257.291C245.699 257.284 246.454 257.564 247.042 258.077C248.03 258.863 249.039 260.01 248.03 261.921C248.43 261.885 248.833 261.93 249.214 262.054C249.596 262.178 249.948 262.379 250.25 262.644C250.756 263.03 251.149 263.545 251.388 264.136C251.627 264.726 251.703 265.37 251.609 266L251.556 266.148L250.494 268.134C251.188 268.144 251.868 268.33 252.469 268.676C253.13 269.071 253.64 269.675 253.918 270.392C254.197 271.11 254.229 271.9 254.009 272.637C254.009 272.743 253.913 272.956 247.17 285.381C246.297 287.045 245.028 288.467 243.474 289.523L243.092 289.767C240.979 291.064 239.246 292.896 238.068 295.077L237.814 295.491ZM222.946 286.273L237.399 294.068C238.66 291.926 240.429 290.128 242.55 288.833L242.901 288.62C244.304 287.657 245.452 286.366 246.246 284.861C250.345 277.32 252.873 272.616 253.021 272.287C253.152 271.786 253.12 271.256 252.929 270.774C252.738 270.293 252.398 269.885 251.959 269.61C251.654 269.397 251.3 269.261 250.93 269.215C250.56 269.168 250.184 269.213 249.835 269.345L247.51 273.657L246.575 273.157L250.568 265.723C250.605 265.292 250.532 264.858 250.356 264.462C250.179 264.067 249.905 263.722 249.559 263.461C249.27 263.19 248.899 263.02 248.505 262.978C248.11 262.936 247.712 263.024 247.372 263.228L243.761 269.812L242.837 269.313L247.085 261.454C247.648 260.392 247.478 259.766 246.395 258.916C245.078 257.854 244.345 258.534 244.154 258.746L239.438 267.391L238.504 266.892L243.23 258.226L247.446 250.632C247.745 250.13 247.889 249.551 247.861 248.968C247.832 248.384 247.633 247.822 247.287 247.351C246.995 247.025 246.61 246.797 246.184 246.699C245.759 246.6 245.313 246.635 244.908 246.799C244.181 247.063 243.589 247.606 243.262 248.307C243.166 248.477 234.957 264.162 233.098 267.603C232.867 267.911 232.571 268.164 232.233 268.347C231.894 268.53 231.52 268.638 231.136 268.663C230.752 268.688 230.367 268.63 230.007 268.493C229.648 268.356 229.322 268.143 229.052 267.869C228.314 266.601 227.878 265.18 227.778 263.716C227.691 263.001 227.564 262.292 227.395 261.592C227.279 261.189 227.183 260.743 227.098 260.297C226.952 259.439 226.706 258.601 226.365 257.801C225.919 256.909 224.804 255.443 223.519 255.677C223.166 255.743 222.836 255.902 222.564 256.137C222.291 256.372 222.086 256.675 221.969 257.015C221.931 257.61 221.981 258.208 222.117 258.789V258.969C222.802 262.527 222.963 266.165 222.595 269.77C222.404 271.32 222.298 272.584 222.245 273.72C222.205 276.082 222.81 278.41 223.997 280.453C224.793 281.94 224.114 283.491 223.508 284.861C223.295 285.321 223.107 285.792 222.946 286.273Z" fill="#263238"/>
<path d="M218.219 289.661L221.171 281.048C221.171 281.048 235.062 280.475 241.105 291.18L232.258 300.738C232.258 300.738 232.471 293.049 218.219 289.661Z" fill="white"/>
<path d="M232.257 301.268C232.19 301.279 232.122 301.279 232.055 301.268C231.955 301.227 231.869 301.156 231.81 301.065C231.752 300.974 231.722 300.867 231.726 300.758C231.726 300.684 231.726 293.441 218.09 290.213C218.007 290.201 217.929 290.168 217.862 290.118C217.795 290.068 217.742 290.002 217.707 289.926C217.679 289.859 217.664 289.786 217.664 289.713C217.664 289.64 217.679 289.568 217.707 289.501L220.66 280.888C220.697 280.787 220.763 280.699 220.85 280.635C220.937 280.57 221.041 280.533 221.148 280.527C221.286 280.527 235.443 280.071 241.56 290.924C241.616 291.023 241.639 291.137 241.626 291.25C241.613 291.362 241.563 291.468 241.486 291.551L232.639 301.109C232.591 301.162 232.532 301.203 232.466 301.231C232.4 301.258 232.328 301.271 232.257 301.268ZM218.908 289.289C229.687 291.997 232.098 297.19 232.639 299.548L240.445 291.105C235.135 282.078 223.708 281.547 221.541 281.547L218.908 289.289Z" fill="#263238"/>
<path d="M122.047 303.551C122.047 303.551 125.488 327.095 148.098 349.907C160.512 362.439 171.09 361.164 171.09 361.164C171.09 361.164 140.791 342.494 122.047 303.551Z" fill="#263238"/>
<path d="M234.499 298.316C223.805 318.951 214.247 335.486 199.357 353.285C196.224 357.023 192.837 360.719 188.536 362.992C184.234 365.265 180.677 366.401 176.408 364.054C155.564 352.497 138.339 335.379 126.653 314.607C122.309 306.865 118.837 297.052 123.467 289.459C127.067 283.491 135.924 279.391 142.402 281.951C147.415 283.926 150.898 288.471 154.084 292.826C160.17 301.226 176.875 327.872 179.466 331.854C192.741 318.547 206.016 303.924 218.293 289.671C220.619 286.868 232.481 293.017 234.499 298.316Z" fill="#294872"/>
<path d="M181.101 365.87C179.358 365.857 177.648 365.389 176.142 364.511C155.258 352.857 137.988 335.675 126.228 314.852C120.249 304.179 119.165 295.545 123.042 289.173C126.599 283.279 135.733 278.723 142.625 281.452C147.627 283.417 151.121 287.824 154.519 292.507C159.043 298.752 169.387 314.99 175.526 324.697C177.331 327.532 178.712 329.773 179.551 331.005C191.626 318.887 204.518 304.858 217.889 289.321C218.579 288.504 219.832 288.259 221.595 288.557C226.332 289.385 233.479 293.962 235.072 298.115C235.101 298.184 235.116 298.258 235.116 298.332C235.116 298.407 235.101 298.481 235.072 298.55C224.08 319.535 214.416 336.06 199.761 353.647C196.16 357.958 192.911 361.293 188.779 363.481C186.453 364.892 183.817 365.713 181.101 365.87ZM138.058 281.686C135.224 281.796 132.456 282.584 129.988 283.982C127.52 285.381 125.422 287.35 123.87 289.725C120.238 295.736 121.321 304.019 127.056 314.331C138.736 334.99 155.881 352.031 176.609 363.587C180.538 365.711 183.852 364.84 188.227 362.525C192.21 360.401 195.364 357.215 198.847 352.967C213.386 335.54 223.029 319.121 233.819 298.306C232.226 294.663 225.493 290.362 221.245 289.629C219.907 289.396 218.94 289.544 218.515 290.033C204.964 305.793 191.891 319.992 179.667 332.237C179.613 332.294 179.547 332.338 179.473 332.365C179.4 332.393 179.321 332.403 179.243 332.396C179.165 332.387 179.089 332.361 179.021 332.321C178.954 332.281 178.895 332.227 178.85 332.162C178.181 331.1 176.577 328.626 174.464 325.291C168.304 315.595 157.992 299.368 153.489 293.155C150.165 288.578 146.799 284.319 142.073 282.461C140.795 281.954 139.433 281.691 138.058 281.686Z" fill="#263238"/>
<path opacity="0.3" d="M191.371 361.208C195.29 358.839 198.261 355.177 199.772 350.854C196.734 352.85 193.463 354.879 189.831 354.953C186.199 355.028 181.834 351.65 182.047 348.018C182.663 348.241 182.578 349.293 181.973 349.569C181.659 349.673 181.32 349.666 181.01 349.55C180.701 349.434 180.441 349.216 180.273 348.932C179.956 348.354 179.778 347.71 179.753 347.052C179.424 344.238 178.691 341.115 178.351 338.301C176.907 342.273 176.917 341.211 175.473 345.193C175.204 346.18 174.689 347.083 173.976 347.817C173.211 348.486 171.905 347.509 171.087 346.903C167.519 344.259 158.194 331.823 147.234 318.707C137.443 307.025 126.207 286.093 121.258 294.78C121.258 294.78 121.141 303.552 127.63 316.222C138.08 336.666 161.784 359.477 182.079 365.456C185.7 366.529 187.006 363.598 191.371 361.208Z" fill="black"/>
<path d="M99.8256 208.651C97.9268 213.388 97.6872 218.629 99.146 223.519C97.16 231.92 100.208 235.201 102.831 235.499C102.349 236.917 102.046 238.391 101.928 239.885C101.851 240.533 101.914 241.191 102.112 241.814C102.31 242.437 102.638 243.01 103.075 243.495C103.528 243.967 104.132 244.265 104.781 244.339C105.431 244.413 106.086 244.257 106.633 243.899C106.447 245.231 106.447 246.582 106.633 247.913C106.719 248.546 106.941 249.153 107.284 249.692C107.627 250.231 108.082 250.689 108.619 251.036C109.169 251.361 109.816 251.482 110.447 251.38C111.077 251.277 111.652 250.956 112.07 250.473C109.596 255.985 115.437 258.353 115.936 257.822C115.363 257.875 114.874 257.259 114.694 256.632C113.557 252.777 116.127 251.195 116.053 247.467C115.947 242.402 111.412 243.379 111.624 244.472C111.794 243.888 112.686 233.725 107.918 234.606C107.1 234.755 110.839 226.652 106.145 225.484C105.327 225.272 104.265 225.951 104.509 226.769C111.816 190.034 131.76 197.553 131.76 197.553C125.643 190.99 106.198 190.661 99.8256 208.651Z" fill="#263238"/>
<path d="M93.2198 247.446C94.7155 247.446 95.9279 246.234 95.9279 244.738C95.9279 243.243 94.7155 242.03 93.2198 242.03C91.7242 242.03 90.5117 243.243 90.5117 244.738C90.5117 246.234 91.7242 247.446 93.2198 247.446Z" fill="#966653"/>
<path d="M93.2212 247.967C92.591 247.967 91.975 247.78 91.4511 247.43C90.9272 247.08 90.5188 246.582 90.2777 246C90.0365 245.418 89.9734 244.777 90.0964 244.159C90.2193 243.541 90.5227 242.973 90.9683 242.528C91.4139 242.082 91.9816 241.779 92.5996 241.656C93.2176 241.533 93.8582 241.596 94.4404 241.837C95.0225 242.078 95.5201 242.487 95.8702 243.011C96.2203 243.535 96.4072 244.151 96.4072 244.781C96.4072 245.626 96.0715 246.436 95.474 247.034C94.8765 247.631 94.0661 247.967 93.2212 247.967ZM93.2212 242.561C92.8011 242.561 92.3904 242.686 92.0411 242.919C91.6918 243.152 91.4196 243.484 91.2588 243.872C91.0981 244.26 91.056 244.687 91.138 245.099C91.2199 245.512 91.4222 245.89 91.7193 246.187C92.0163 246.484 92.3948 246.686 92.8068 246.768C93.2188 246.85 93.6459 246.808 94.034 246.647C94.4221 246.487 94.7538 246.214 94.9872 245.865C95.2206 245.516 95.3452 245.105 95.3452 244.685C95.3452 244.122 95.1214 243.582 94.723 243.183C94.3247 242.785 93.7845 242.561 93.2212 242.561Z" fill="#263238"/>
<path d="M135.16 281.537C135.086 281.537 135.013 281.522 134.946 281.493C134.878 281.464 134.817 281.421 134.767 281.367C128.257 274.071 122.522 270.195 113.601 267.062C113.48 267.007 113.384 266.909 113.332 266.787C113.28 266.665 113.275 266.527 113.319 266.402C113.363 266.277 113.452 266.172 113.57 266.11C113.687 266.047 113.823 266.031 113.952 266.064C123.064 269.249 128.926 273.211 135.564 280.655C135.662 280.756 135.716 280.892 135.716 281.032C135.716 281.173 135.662 281.308 135.564 281.409C135.45 281.502 135.306 281.547 135.16 281.537Z" fill="#263238"/>
<path d="M180.721 333.171C179.436 337.721 179.139 342.494 179.85 347.168L180.721 333.171Z" fill="#294872"/>
<path d="M179.846 347.699C179.721 347.698 179.6 347.653 179.505 347.571C179.409 347.49 179.346 347.377 179.326 347.253C178.608 342.501 178.908 337.65 180.208 333.022C180.225 332.955 180.255 332.892 180.297 332.837C180.34 332.782 180.393 332.736 180.454 332.702C180.514 332.668 180.581 332.647 180.65 332.64C180.719 332.633 180.789 332.64 180.855 332.661C180.99 332.699 181.105 332.788 181.174 332.909C181.244 333.03 181.263 333.174 181.227 333.309C179.967 337.799 179.678 342.505 180.377 347.115C180.396 347.254 180.36 347.395 180.277 347.508C180.193 347.621 180.07 347.697 179.931 347.721L179.846 347.699Z" fill="#263238"/>
<path d="M184.416 353.519C184.319 353.518 184.224 353.491 184.142 353.441C184.06 353.39 183.993 353.318 183.948 353.232C182.157 349.874 181.344 346.081 181.601 342.283C181.611 342.142 181.677 342.011 181.783 341.919C181.89 341.826 182.029 341.78 182.17 341.789C182.31 341.799 182.441 341.865 182.534 341.971C182.627 342.078 182.673 342.217 182.663 342.358C182.425 345.956 183.197 349.55 184.894 352.733C184.959 352.858 184.973 353.002 184.933 353.137C184.894 353.272 184.803 353.386 184.681 353.455C184.599 353.498 184.508 353.52 184.416 353.519Z" fill="#263238"/>
<path d="M106.355 368.684C106.236 368.685 106.119 368.646 106.025 368.573C105.93 368.499 105.863 368.396 105.835 368.28C102.775 355.465 97.7294 343.206 90.8817 331.949C90.8454 331.889 90.8213 331.823 90.8108 331.754C90.8002 331.684 90.8034 331.614 90.8202 331.546C90.8369 331.478 90.867 331.414 90.9085 331.357C90.95 331.301 91.0022 331.253 91.0622 331.217C91.1222 331.18 91.1887 331.156 91.258 331.146C91.3273 331.135 91.398 331.138 91.466 331.155C91.534 331.172 91.5981 331.202 91.6546 331.243C91.711 331.285 91.7587 331.337 91.795 331.397C98.6935 342.749 103.781 355.107 106.875 368.026C106.905 368.163 106.881 368.307 106.808 368.427C106.734 368.548 106.618 368.636 106.482 368.673L106.355 368.684Z" fill="#263238"/>
<path d="M132.748 333.256C132.667 333.259 132.586 333.241 132.514 333.203C129.199 331.54 126.005 329.645 122.956 327.532C122.898 327.492 122.848 327.442 122.809 327.383C122.771 327.324 122.744 327.258 122.732 327.189C122.719 327.12 122.72 327.049 122.735 326.98C122.749 326.911 122.778 326.846 122.818 326.788C122.856 326.73 122.906 326.681 122.964 326.642C123.022 326.604 123.087 326.578 123.155 326.565C123.224 326.552 123.294 326.553 123.362 326.567C123.43 326.582 123.494 326.61 123.551 326.65C126.576 328.74 129.745 330.614 133.034 332.258C133.138 332.313 133.22 332.402 133.268 332.509C133.315 332.617 133.326 332.737 133.298 332.851C133.27 332.965 133.205 333.067 133.113 333.14C133.021 333.214 132.908 333.254 132.79 333.256H132.748Z" fill="#263238"/>
<path d="M118.094 323.793C117.971 323.79 117.853 323.75 117.754 323.676C109.476 316.935 102.599 308.637 97.5123 299.25C97.4791 299.188 97.4585 299.121 97.4517 299.051C97.4449 298.981 97.4521 298.91 97.4729 298.843C97.4936 298.776 97.5275 298.713 97.5725 298.659C97.6176 298.605 97.6729 298.561 97.7353 298.528C97.7965 298.495 97.8636 298.475 97.9328 298.468C98.002 298.462 98.0718 298.469 98.1381 298.49C98.2045 298.51 98.266 298.544 98.319 298.589C98.372 298.634 98.4155 298.689 98.4468 298.751C103.466 308.012 110.253 316.199 118.423 322.848C118.509 322.917 118.571 323.01 118.601 323.116C118.631 323.221 118.628 323.333 118.592 323.437C118.556 323.541 118.489 323.63 118.4 323.694C118.31 323.758 118.204 323.793 118.094 323.793Z" fill="#263238"/>
<path d="M161.783 422.74C161.653 422.739 161.528 422.691 161.431 422.605C161.334 422.519 161.27 422.401 161.252 422.273L154.487 362.96C154.472 362.821 154.513 362.681 154.601 362.572C154.688 362.462 154.815 362.392 154.955 362.376C155.094 362.361 155.234 362.402 155.343 362.489C155.452 362.577 155.523 362.704 155.539 362.843L162.304 422.145C162.313 422.215 162.308 422.286 162.289 422.354C162.27 422.422 162.238 422.485 162.194 422.541C162.151 422.596 162.097 422.642 162.035 422.676C161.974 422.711 161.906 422.732 161.836 422.74H161.783Z" fill="#263238"/>
<path d="M154.53 359.19C154.4 359.193 154.274 359.147 154.177 359.06C154.081 358.973 154.021 358.853 154.01 358.723L153.107 350.811C153.097 350.742 153.101 350.671 153.119 350.603C153.137 350.535 153.169 350.472 153.213 350.417C153.257 350.362 153.312 350.317 153.374 350.284C153.436 350.251 153.504 350.232 153.574 350.227C153.644 350.218 153.714 350.223 153.781 350.242C153.848 350.261 153.911 350.293 153.966 350.337C154.02 350.38 154.065 350.434 154.098 350.496C154.132 350.557 154.152 350.625 154.159 350.694L155.061 358.606C155.076 358.745 155.035 358.885 154.948 358.994C154.86 359.104 154.733 359.174 154.594 359.19H154.53Z" fill="#263238"/>
<path d="M72.9977 355.08C69.0582 355.099 65.1632 354.247 61.5918 352.584C61.4984 352.544 61.4189 352.477 61.363 352.392C61.3071 352.307 61.2773 352.208 61.2773 352.106C61.2773 352.004 61.3071 351.905 61.363 351.82C61.4189 351.735 61.4984 351.668 61.5918 351.628C63.4112 350.768 65.3905 350.298 67.4025 350.248C69.4144 350.199 71.4144 350.571 73.2738 351.341C73.3387 351.367 73.3977 351.405 73.4475 351.454C73.4972 351.503 73.5366 351.561 73.5634 351.626C73.5901 351.69 73.6036 351.759 73.6032 351.829C73.6027 351.899 73.5882 351.968 73.5605 352.032C73.5043 352.162 73.3995 352.264 73.2685 352.318C73.1375 352.371 72.9908 352.372 72.8596 352.318C69.7761 351.048 66.3293 350.976 63.1954 352.117C68.298 354.211 73.9385 354.609 79.2847 353.253C79.4256 353.216 79.5752 353.237 79.7006 353.311C79.8261 353.384 79.9172 353.505 79.9538 353.646C79.9904 353.787 79.9696 353.936 79.8959 354.062C79.8222 354.187 79.7017 354.278 79.5608 354.315C77.4142 354.846 75.2089 355.103 72.9977 355.08Z" fill="#263238"/>
<path d="M78.3517 348.974H78.288C75.7535 348.635 73.3266 347.734 71.1844 346.338C69.0421 344.941 67.2385 343.084 65.9051 340.903C65.8319 340.781 65.8098 340.636 65.8436 340.499C65.8775 340.361 65.9645 340.243 66.0857 340.17C66.2068 340.097 66.352 340.074 66.4894 340.108C66.6269 340.142 66.7452 340.229 66.8184 340.35C68.0793 342.381 69.7722 344.108 71.7767 345.409C73.7811 346.711 76.0479 347.554 78.4155 347.88C78.5555 347.898 78.6828 347.971 78.7701 348.082C78.8574 348.193 78.8978 348.334 78.8827 348.475C78.8722 348.609 78.8119 348.735 78.7138 348.827C78.6156 348.919 78.4865 348.971 78.3517 348.974Z" fill="#263238"/>
<path d="M86.4355 323.751C86.3532 323.75 86.2721 323.731 86.1985 323.694C86.1249 323.657 86.0607 323.604 86.0107 323.539L75.0083 308.809C74.9265 308.695 74.8919 308.554 74.9117 308.416C74.9315 308.277 75.0042 308.151 75.1145 308.065C75.171 308.024 75.235 307.994 75.303 307.978C75.3709 307.961 75.4414 307.958 75.5105 307.969C75.5796 307.98 75.6458 308.005 75.7054 308.041C75.7651 308.078 75.8169 308.126 75.8579 308.182L86.8603 322.901C86.9421 323.015 86.9767 323.156 86.9569 323.295C86.9371 323.433 86.8644 323.559 86.7541 323.645C86.6625 323.715 86.5505 323.752 86.4355 323.751Z" fill="#263238"/>
<path d="M142.305 478.389C142.232 478.403 142.156 478.403 142.082 478.389C132.333 473.886 121.32 463.414 114.024 451.701C113.977 451.642 113.943 451.575 113.924 451.502C113.905 451.43 113.901 451.354 113.913 451.28C113.926 451.206 113.953 451.136 113.995 451.073C114.036 451.011 114.091 450.958 114.154 450.918C114.217 450.878 114.288 450.852 114.363 450.841C114.437 450.831 114.512 450.836 114.584 450.857C114.656 450.877 114.723 450.913 114.78 450.962C114.838 451.01 114.884 451.07 114.916 451.138C122.117 462.692 132.97 473.004 142.528 477.422C142.592 477.452 142.649 477.494 142.697 477.546C142.744 477.598 142.781 477.658 142.804 477.725C142.828 477.791 142.838 477.861 142.835 477.931C142.831 478.001 142.814 478.07 142.783 478.134C142.734 478.216 142.664 478.283 142.58 478.328C142.496 478.373 142.401 478.394 142.305 478.389Z" fill="#263238"/>
<path d="M112.483 448.323C112.38 448.322 112.281 448.292 112.196 448.235C112.111 448.179 112.044 448.098 112.005 448.004C111.357 446.602 110.762 445.158 110.242 443.756C110.217 443.691 110.205 443.621 110.207 443.551C110.21 443.481 110.226 443.412 110.256 443.349C110.286 443.285 110.328 443.228 110.381 443.182C110.433 443.135 110.494 443.099 110.56 443.077C110.693 443.032 110.838 443.04 110.964 443.099C111.091 443.158 111.19 443.265 111.24 443.395C111.75 444.808 112.302 446.231 112.971 447.643C113.029 447.771 113.033 447.917 112.983 448.048C112.933 448.18 112.834 448.286 112.706 448.344C112.631 448.352 112.555 448.344 112.483 448.323Z" fill="#263238"/>
<path d="M132.749 485.823C132.631 485.821 132.518 485.781 132.425 485.708C132.333 485.635 132.268 485.533 132.239 485.419L127.779 468.342C127.743 468.204 127.763 468.058 127.835 467.934C127.907 467.811 128.024 467.721 128.161 467.684C128.298 467.654 128.44 467.677 128.56 467.748C128.681 467.818 128.769 467.932 128.809 468.066L133.259 485.196C133.276 485.264 133.281 485.334 133.271 485.403C133.261 485.472 133.238 485.539 133.202 485.599C133.167 485.659 133.12 485.712 133.064 485.754C133.008 485.796 132.944 485.826 132.877 485.844L132.749 485.823Z" fill="#263238"/>
<path d="M144.959 385.676C144.854 385.679 144.75 385.65 144.662 385.591C127.551 374.349 113.544 358.981 103.934 340.902C103.87 340.777 103.857 340.631 103.899 340.496C103.941 340.361 104.033 340.248 104.157 340.18C104.219 340.147 104.287 340.126 104.357 340.12C104.427 340.113 104.498 340.12 104.565 340.141C104.632 340.162 104.695 340.195 104.749 340.241C104.803 340.286 104.847 340.341 104.88 340.403C114.4 358.319 128.278 373.55 145.236 384.689C145.354 384.767 145.438 384.889 145.468 385.028C145.497 385.167 145.471 385.312 145.395 385.432C145.347 385.504 145.282 385.564 145.206 385.606C145.131 385.649 145.046 385.673 144.959 385.676Z" fill="#263238"/>
<path d="M101.848 336.081C101.747 336.081 101.648 336.052 101.563 335.998C101.478 335.943 101.411 335.865 101.37 335.773C100.191 333.298 99.0972 330.749 98.0989 328.201C98.0733 328.135 98.061 328.065 98.0626 327.995C98.0643 327.925 98.0799 327.855 98.1086 327.791C98.1372 327.727 98.1784 327.669 98.2296 327.621C98.2808 327.573 98.341 327.535 98.4069 327.51C98.5381 327.461 98.6833 327.464 98.812 327.52C98.9407 327.575 99.0429 327.678 99.0972 327.808C100.074 330.335 101.221 332.863 102.283 335.316C102.314 335.379 102.331 335.448 102.335 335.518C102.339 335.589 102.328 335.659 102.304 335.725C102.281 335.791 102.244 335.852 102.197 335.904C102.149 335.956 102.092 335.998 102.028 336.028C101.971 336.055 101.91 336.073 101.848 336.081Z" fill="#263238"/>
<path d="M150.07 316.157L156.368 308.628L150.07 316.157Z" fill="#294872"/>
<path d="M150.07 316.688C149.945 316.686 149.825 316.641 149.73 316.561C149.676 316.517 149.632 316.462 149.599 316.401C149.567 316.339 149.547 316.272 149.541 316.203C149.535 316.133 149.543 316.064 149.565 315.997C149.586 315.931 149.621 315.87 149.666 315.818L155.953 308.288C156.046 308.181 156.176 308.114 156.317 308.103C156.458 308.091 156.598 308.134 156.707 308.224C156.761 308.268 156.805 308.323 156.838 308.384C156.87 308.446 156.89 308.513 156.896 308.582C156.902 308.652 156.894 308.722 156.872 308.788C156.851 308.854 156.816 308.915 156.771 308.968L150.484 316.476C150.435 316.541 150.373 316.593 150.301 316.63C150.23 316.667 150.15 316.687 150.07 316.688Z" fill="#263238"/>
<path d="M142.203 316.476C146.917 314.938 150.881 311.686 153.312 307.364L142.203 316.476Z" fill="#294872"/>
<path d="M142.196 316.964C142.082 316.965 141.972 316.929 141.88 316.862C141.788 316.795 141.72 316.701 141.686 316.593C141.643 316.459 141.654 316.313 141.718 316.188C141.781 316.062 141.892 315.967 142.026 315.924C146.614 314.433 150.473 311.271 152.837 307.066C152.905 306.943 153.019 306.851 153.154 306.811C153.29 306.771 153.435 306.786 153.559 306.854C153.683 306.922 153.775 307.036 153.815 307.171C153.855 307.307 153.839 307.452 153.772 307.576C151.276 312.017 147.2 315.357 142.355 316.932L142.196 316.964Z" fill="#263238"/>
</svg>
