<svg width="48" height="48" viewBox="0 0 48 48" fill="none" xmlns="http://www.w3.org/2000/svg">
<path d="M24 48C37.2548 48 48 37.2548 48 24C48 10.7452 37.2548 0 24 0C10.7452 0 0 10.7452 0 24C0 37.2548 10.7452 48 24 48Z" fill="#ADCFFF"/>
<path d="M35.2433 16.6283L29.6336 11.0186L16.8632 23.7888L11.9577 18.8833L5.23438 25.6067L11.0134 31.3857L6.91756 35.4817L18.8892 47.4533C20.536 47.8104 22.2451 48.0002 23.9988 48.0002C37.2537 48.0002 47.9988 37.2551 47.9988 24.0002C47.9988 23.3282 47.9697 22.6631 47.9157 22.005L38.8912 12.9806L35.2433 16.6283Z" fill="#8BBBFF"/>
<path d="M6.91797 25.3828H11.4066V35.4823H6.91797V25.3828Z" fill="black"/>
<path d="M13.0898 16.6294L12.582 21.118L21.1078 22.5207L29.6337 21.118V11.0186L13.0898 16.6294Z" fill="#294872"/>
<path d="M12.582 21.1182L13.0898 25.6068L29.6337 31.2177V21.1182H12.582Z" fill="#E9EDF5"/>
<path d="M13.0895 16.6299H5.23438V21.1185L9.16194 21.9833L13.0895 21.1185V16.6299Z" fill="#365F96"/>
<path d="M5.23438 21.1182H13.0896V25.6068H5.23438V21.1182Z" fill="#294872"/>
<path d="M35.0906 12.9853C34.1441 12.0388 32.6095 12.0388 31.663 12.9853C30.7165 13.9318 30.7165 15.4664 31.663 16.4129L35.2811 20.0309L36.5088 15.8621L35.2811 13.1757L35.0906 12.9853Z" fill="#6FCF97"/>
<path d="M38.8993 12.9853C37.9528 12.0388 36.4182 12.0388 35.4717 12.9853L35.2812 13.1757V20.0309L38.8994 16.4129C39.8458 15.4664 39.8458 13.9318 38.8993 12.9853Z" fill="#339970"/>
<path d="M33.6186 22.9353C33.0669 22.3836 32.1724 22.3836 31.6208 22.9353C31.0691 23.487 31.0691 24.3815 31.6208 24.9331L33.7296 27.0419L34.4452 24.6121L33.7296 23.0463L33.6186 22.9353Z" fill="#339970"/>
<path d="M35.8393 22.9353C35.2876 22.3836 34.3931 22.3836 33.8415 22.9353L33.7305 23.0463V27.0419L35.8393 24.9331C36.391 24.3814 36.391 23.4869 35.8393 22.9353Z" fill="#6FCF97"/>
<path d="M40.1125 25.3738C39.3602 24.6215 38.1407 24.6215 37.3884 25.3738C36.6362 26.126 36.6362 27.3456 37.3884 28.0978L40.2638 30.9733L41.2396 27.6601L40.2638 25.5251L40.1125 25.3738Z" fill="#94DBBE"/>
<path d="M43.141 25.3738C42.3888 24.6215 41.1692 24.6215 40.4169 25.3738L40.2656 25.5251V30.9733L43.141 28.0978C43.8933 27.3456 43.8933 26.1259 43.141 25.3738Z" fill="#339970"/>
</svg>
