<svg width="49" height="48" viewBox="0 0 49 48" fill="none" xmlns="http://www.w3.org/2000/svg">
<path d="M38.8531 43.9392L35.75 44.9104L33.0687 45.7495H18.9866L16.25 37.0064L7.25 8.24949L16.25 5.4323L25.8594 2.4248L35.75 34.0251L38.8531 43.9392Z" fill="#379A6B"/>
<path d="M32.2731 40.4982L32.9451 42.6455L24.356 45.3337L23.6839 43.1864L21.5367 43.8585L11.6797 12.365L13.8269 11.693L13.1549 9.54561L21.744 6.85742L22.4161 9.00467L24.5634 8.33258L34.4203 39.8261L32.2731 40.4982Z" fill="#44C086"/>
<path d="M16.25 2.25H35.75V45.75H16.25V2.25Z" fill="#38A867"/>
<path d="M30.5 40.5V42.75H21.5V40.5H19.25V7.5H21.5V5.25H30.5V7.5H32.75V40.5H30.5Z" fill="#44C086"/>
<path d="M26 27.75C28.0711 27.75 29.75 26.0711 29.75 24C29.75 21.9289 28.0711 20.25 26 20.25C23.9289 20.25 22.25 21.9289 22.25 24C22.25 26.0711 23.9289 27.75 26 27.75Z" fill="#38A867"/>
<path d="M41.7516 27.75V45.75H36.5016C34.5124 45.75 32.6048 44.9598 31.1983 43.5533C29.7917 42.1468 29.0016 40.2391 29.0016 38.25H29.0166L24.1509 31.0495C23.7055 30.3903 23.5402 29.581 23.6914 28.7999C23.8426 28.0187 24.2979 27.3297 24.9572 26.8842C25.6165 26.4388 26.4257 26.2735 27.2068 26.4247C27.988 26.5759 28.6771 27.0312 29.1225 27.6905L33.5016 33.75H35.7516V15.75L41.3986 26.3382C41.6303 26.7727 41.7516 27.2576 41.7516 27.75Z" fill="#666666"/>
</svg>
