<svg width="48" height="48" viewBox="0 0 48 48" fill="none" xmlns="http://www.w3.org/2000/svg">
<path d="M29.9905 15.7232C29.4414 15.1741 28.5511 15.174 28.0018 15.7232L24.1337 19.5912L19.9983 15.4558C19.4492 14.9066 18.5587 14.9066 18.0095 15.4558C17.4604 16.005 17.4604 16.8954 18.0095 17.4446L22.7274 22.1624V26.7939C22.7274 27.5705 23.357 28.2001 24.1337 28.2001C24.9103 28.2001 25.5399 27.5705 25.5399 26.7939V22.1624L29.9905 17.7119C30.5397 17.1628 30.5397 16.2724 29.9905 15.7232Z" fill="#2F80ED"/>
<path d="M28.0018 15.7234L24.1337 19.5914L24.0938 19.5516V28.1983C24.1072 28.1987 24.1202 28.2003 24.1337 28.2003C24.9103 28.2003 25.5399 27.5707 25.5399 26.794V22.1626L29.9905 17.7121C30.5397 17.163 30.5397 16.2726 29.9905 15.7234C29.4413 15.1743 28.551 15.1742 28.0018 15.7234Z" fill="#2C3B73"/>
<path d="M37.1599 0C31.1829 0 26.3203 4.86619 26.3203 10.8476C26.3203 14.4966 28.13 17.7305 30.8983 19.6977L37.1599 17.9452L43.2161 19.8401C46.0999 17.8887 47.9994 14.5859 47.9994 10.8476C47.9994 4.86619 43.1368 0 37.1599 0V0Z" fill="#3F89EE"/>
<path d="M10.8396 0C4.86263 0 0 4.86619 0 10.8476C0 14.4966 1.80966 17.7305 4.578 19.6977L10.8396 17.9452L16.8958 19.8401C19.7797 17.8888 21.679 14.586 21.679 10.8476C21.6791 4.86619 16.8165 0 10.8396 0V0Z" fill="#366496"/>
<path d="M10.8398 0V17.9452L16.8961 19.84C19.7799 17.8887 21.6793 14.5859 21.6793 10.8475C21.6794 4.86619 16.8168 0 10.8398 0V0Z" fill="#294872"/>
<path d="M37.1602 0V17.9452L43.2164 19.84C46.1002 17.8887 47.9997 14.5859 47.9997 10.8476C47.9997 4.86619 43.1371 0 37.1602 0V0Z" fill="#2F80ED"/>
<path d="M23.9997 26.3047C18.0228 26.3047 13.1602 31.1709 13.1602 37.1523C13.1602 40.8013 14.9698 44.0352 17.7382 46.0024L23.9997 44.2498L30.056 46.1447C32.9398 44.1934 34.8392 40.8906 34.8392 37.1522C34.8393 31.1709 29.9767 26.3047 23.9997 26.3047Z" fill="#5CE6B8"/>
<path d="M24 26.3047V44.2498L30.0563 46.1447C32.9401 44.1934 34.8395 40.8906 34.8395 37.1522C34.8396 31.1709 29.9769 26.3047 24 26.3047Z" fill="#3DCCB4"/>
<path d="M23.9998 39.457C20.7612 39.457 18.0724 41.8857 17.7455 45.1064C17.7407 45.1536 17.7383 45.201 17.7383 45.2484V46.0025C19.5079 47.2599 21.6691 48 23.9998 48C26.3306 48 28.4918 47.2599 30.2614 46.0024V45.2483C30.2614 45.2009 30.259 45.1536 30.2542 45.1063C29.9273 41.8857 27.2385 39.457 23.9998 39.457Z" fill="#3F89EE"/>
<path d="M24 39.457V48C26.3307 48 28.4919 47.2599 30.2616 46.0024V45.2483C30.2616 45.2009 30.2592 45.1536 30.2543 45.1063C29.9274 41.8857 27.2387 39.457 24 39.457Z" fill="#2F80ED"/>
<path d="M28.6223 37.6477C28.6274 35.092 26.5609 33.016 24.0067 33.0109C21.4524 33.0058 19.3776 35.0735 19.3725 37.6292C19.3674 40.185 21.4339 42.261 23.9882 42.2661C26.5424 42.2712 28.6172 40.2035 28.6223 37.6477Z" fill="#C9C9C9"/>
<path d="M24 33.0137V42.2689C26.5502 42.2689 28.6249 40.1929 28.6249 37.6413C28.6249 35.0897 26.5502 33.0137 24 33.0137Z" fill="#666666"/>
<path d="M10.8397 13.1523C7.601 13.1523 4.91225 15.581 4.58534 18.8017C4.58056 18.8489 4.57812 18.8963 4.57812 18.9438V19.6978C6.34766 20.9553 8.50888 21.6954 10.8397 21.6954C13.1704 21.6954 15.3316 20.9553 17.1012 19.6978V18.9438C17.1012 18.8963 17.0989 18.849 17.094 18.8017C16.7671 15.581 14.0784 13.1523 10.8397 13.1523Z" fill="#6ACDA5"/>
<path d="M10.8398 13.1523V21.6953C13.1706 21.6953 15.3318 20.9553 17.1014 19.6977V18.9437C17.1014 18.8962 17.0991 18.8489 17.0942 18.8016C16.7673 15.581 14.0785 13.1523 10.8398 13.1523Z" fill="#6FCF97"/>
<path d="M15.466 11.345C15.4711 8.78926 13.4047 6.71327 10.8504 6.70816C8.29617 6.70305 6.2214 8.77076 6.21629 11.3265C6.21117 13.8823 8.27766 15.9582 10.8319 15.9634C13.3862 15.9685 15.4609 13.9008 15.466 11.345Z" fill="#C9C9C9"/>
<path d="M10.8398 6.70898V15.9642C13.39 15.9642 15.4647 13.8882 15.4647 11.3366C15.4647 8.78498 13.39 6.70898 10.8398 6.70898Z" fill="#666666"/>
<path d="M37.16 13.1523C33.9213 13.1523 31.2326 15.581 30.9057 18.8017C30.9009 18.8489 30.8984 18.8963 30.8984 18.9438V19.6978C32.668 20.9553 34.8292 21.6954 37.16 21.6954C39.4907 21.6954 41.6519 20.9553 43.4216 19.6978V18.9438C43.4216 18.8963 43.4192 18.849 43.4143 18.8017C43.0875 15.581 40.3987 13.1523 37.16 13.1523Z" fill="#5CE6B8"/>
<path d="M37.1602 13.1523V21.6953C39.4909 21.6953 41.6521 20.9553 43.4217 19.6977V18.9437C43.4217 18.8962 43.4194 18.8489 43.4145 18.8016C43.0877 15.581 40.3988 13.1523 37.1602 13.1523Z" fill="#3DCCB4"/>
<path d="M41.7824 11.345C41.7875 8.78926 39.7211 6.71327 37.1668 6.70816C34.6126 6.70305 32.5378 8.77076 32.5327 11.3265C32.5276 13.8823 34.5941 15.9582 37.1483 15.9634C39.7026 15.9685 41.7773 13.9008 41.7824 11.345Z" fill="#C9C9C9"/>
<path d="M37.1602 6.70898V15.9642C39.7103 15.9642 41.785 13.8882 41.785 11.3366C41.785 8.78498 39.7103 6.70898 37.1602 6.70898Z" fill="#666666"/>
</svg>
