<svg width="48" height="48" viewBox="0 0 48 48" fill="none" xmlns="http://www.w3.org/2000/svg">
<path d="M0 40.7158H24V44.1444H0V40.7158Z" fill="#57565C"/>
<path d="M24 40.7158H48V44.1444H24V40.7158Z" fill="#787680"/>
<path d="M40.2863 12.43C40.2863 21.0015 24.0006 29.5729 24.0006 29.5729C20.7185 27.7825 17.6159 25.6814 14.7348 23.2984C11.0664 20.213 7.71485 16.3215 7.71485 12.43C7.71192 8.43144 10.4754 4.96269 14.3736 4.07248C18.2718 3.18185 22.267 5.10666 24.0006 8.70976C25.4282 5.74659 28.4256 3.86154 31.7148 3.85861C33.0625 3.85568 34.3909 4.17586 35.5891 4.79276C38.4707 6.24798 40.2871 9.20195 40.2863 12.43Z" fill="#6FCF97"/>
<path d="M40.2859 12.4302C40.2859 21.0017 24.0001 29.5731 24.0001 29.5731C20.7181 27.7826 17.6155 25.6816 14.7344 23.2985C23.0852 18.9145 30.2429 12.5629 35.5887 4.79297C38.4703 6.24819 40.2867 9.20215 40.2859 12.4302Z" fill="#267354"/>
<path d="M0 42.4297H24V44.144H0V42.4297Z" fill="#3E3D42"/>
<path d="M24 42.4297H48V44.144H24V42.4297Z" fill="#57565C"/>
<path d="M24.6942 40.4655L23.3047 39.4619C25.3902 36.5783 30.3728 34.7158 35.9999 34.7158C40.2676 34.7158 44.2034 35.7776 46.7999 37.63L45.8047 39.0254C43.5262 37.4003 39.857 36.4301 35.9999 36.4301C30.983 36.4301 26.4403 38.0519 24.6942 40.4655Z" fill="#294872"/>
<path d="M23.305 40.4655C21.5589 38.0519 17.0162 36.4301 11.9993 36.4301C8.14216 36.4301 4.47293 37.4003 2.19447 39.0246L1.19922 37.63C3.79576 35.7776 7.73158 34.7158 11.9993 34.7158C17.6264 34.7158 22.6089 36.5783 24.6945 39.4619L23.305 40.4655Z" fill="#294872"/>
<path d="M23.2157 40.3108C22.0107 37.5866 17.9016 35.0557 12.9961 34.0123C9.22015 33.21 5.43331 33.3979 2.86565 34.5121L2.17969 32.9401C5.10352 31.669 9.17494 31.448 13.3502 32.3403C18.8538 33.5101 23.3408 36.3686 24.781 39.626L23.2157 40.3108Z" fill="#294872"/>
<path d="M24.7826 40.3099L23.2148 39.6165C24.655 36.3595 29.142 33.5051 34.6456 32.3308C38.82 31.4439 42.8915 31.664 45.8161 32.9309L45.1302 34.5029C42.5642 33.3884 38.7773 33.2009 34.9997 34.0032C30.095 35.0583 25.9876 37.5858 24.7826 40.3099Z" fill="#294872"/>
</svg>
